<?xml version="1.0" encoding="utf-8" ?>
<svg baseProfile="tiny" height="100%" version="1.2" width="100%" xmlns="http://www.w3.org/2000/svg" xmlns:ev="http://www.w3.org/2001/xml-events" xmlns:xlink="http://www.w3.org/1999/xlink"><defs /><rect fill="lightgray" height="18mm" rx="1mm" ry="1mm" stroke-width="1" width="18mm" x="10mm" y="20mm" /><text fill="black" font-family="monospace" font-size="1em" text-anchor="middle" x="19.0mm" y="30.0mm">4/q</text><rect fill="lightgray" height="18mm" rx="1mm" ry="1mm" stroke-width="1" width="18mm" x="29mm" y="15mm" /><text fill="black" font-family="monospace" font-size="1em" text-anchor="middle" x="38.0mm" y="25.0mm">w</text><rect fill="lightgray" height="18mm" rx="1mm" ry="1mm" stroke-width="1" width="18mm" x="48mm" y="10mm" /><text fill="black" font-family="monospace" font-size="1em" text-anchor="middle" x="57.0mm" y="20.0mm">f</text><rect fill="lightgray" height="18mm" rx="1mm" ry="1mm" stroke-width="1" width="18mm" x="67mm" y="15mm" /><text fill="black" font-family="monospace" font-size="1em" text-anchor="middle" x="76.0mm" y="25.0mm">p</text><rect fill="lightgray" height="18mm" rx="1mm" ry="1mm" stroke-width="1" width="18mm" x="86mm" y="15mm" /><text fill="black" font-family="monospace" font-size="1em" text-anchor="middle" x="95.0mm" y="25.0mm">b</text><rect fill="lightgray" height="18mm" rx="1mm" ry="1mm" stroke-width="1" width="18mm" x="120mm" y="15mm" /><text fill="black" font-family="monospace" font-size="1em" text-anchor="middle" x="129.0mm" y="25.0mm">j</text><rect fill="lightgray" height="18mm" rx="1mm" ry="1mm" stroke-width="1" width="18mm" x="139mm" y="15mm" /><text fill="black" font-family="monospace" font-size="1em" text-anchor="middle" x="148.0mm" y="25.0mm">l</text><rect fill="lightgray" height="18mm" rx="1mm" ry="1mm" stroke-width="1" width="18mm" x="158mm" y="10mm" /><text fill="black" font-family="monospace" font-size="1em" text-anchor="middle" x="167.0mm" y="20.0mm">u</text><rect fill="lightgray" height="18mm" rx="1mm" ry="1mm" stroke-width="1" width="18mm" x="177mm" y="15mm" /><text fill="black" font-family="monospace" font-size="1em" text-anchor="middle" x="186.0mm" y="25.0mm">y</text><rect fill="lightgray" height="18mm" rx="1mm" ry="1mm" stroke-width="1" width="18mm" x="196mm" y="20mm" /><text fill="black" font-family="monospace" font-size="1em" text-anchor="middle" x="205.0mm" y="30.0mm">'</text><rect fill="lightgray" height="18mm" rx="1mm" ry="1mm" stroke-width="1" width="18mm" x="10mm" y="39mm" /><text fill="black" font-family="monospace" font-size="1em" text-anchor="middle" x="19.0mm" y="49.0mm">a</text><rect fill="lightgray" height="18mm" rx="1mm" ry="1mm" stroke-width="1" width="18mm" x="29mm" y="34mm" /><text fill="black" font-family="monospace" font-size="1em" text-anchor="middle" x="38.0mm" y="44.0mm">alt/r</text><rect fill="lightgray" height="18mm" rx="1mm" ry="1mm" stroke-width="1" width="18mm" x="48mm" y="29mm" /><text fill="black" font-family="monospace" font-size="1em" text-anchor="middle" x="57.0mm" y="39.0mm">cmd/s</text><rect fill="lightgray" height="18mm" rx="1mm" ry="1mm" stroke-width="1" width="18mm" x="67mm" y="34mm" /><text fill="black" font-family="monospace" font-size="1em" text-anchor="middle" x="76.0mm" y="44.0mm">t</text><rect fill="lightgray" height="18mm" rx="1mm" ry="1mm" stroke-width="1" width="18mm" x="86mm" y="34mm" /><text fill="black" font-family="monospace" font-size="1em" text-anchor="middle" x="95.0mm" y="44.0mm">g</text><rect fill="lightgray" height="18mm" rx="1mm" ry="1mm" stroke-width="1" width="18mm" x="120mm" y="34mm" /><text fill="black" font-family="monospace" font-size="1em" text-anchor="middle" x="129.0mm" y="44.0mm">m</text><rect fill="lightgray" height="18mm" rx="1mm" ry="1mm" stroke-width="1" width="18mm" x="139mm" y="34mm" /><text fill="black" font-family="monospace" font-size="1em" text-anchor="middle" x="148.0mm" y="44.0mm">n</text><rect fill="lightgray" height="18mm" rx="1mm" ry="1mm" stroke-width="1" width="18mm" x="158mm" y="29mm" /><text fill="black" font-family="monospace" font-size="1em" text-anchor="middle" x="167.0mm" y="39.0mm">e</text><rect fill="lightgray" height="18mm" rx="1mm" ry="1mm" stroke-width="1" width="18mm" x="177mm" y="34mm" /><text fill="black" font-family="monospace" font-size="1em" text-anchor="middle" x="186.0mm" y="44.0mm">i</text><rect fill="lightgray" height="18mm" rx="1mm" ry="1mm" stroke-width="1" width="18mm" x="196mm" y="39mm" /><text fill="black" font-family="monospace" font-size="1em" text-anchor="middle" x="205.0mm" y="49.0mm">o</text><rect fill="lightgray" height="18mm" rx="1mm" ry="1mm" stroke-width="1" width="18mm" x="10mm" y="58mm" /><text fill="black" font-family="monospace" font-size="1em" text-anchor="middle" x="19.0mm" y="68.0mm">z</text><rect fill="lightgray" height="18mm" rx="1mm" ry="1mm" stroke-width="1" width="18mm" x="29mm" y="53mm" /><text fill="black" font-family="monospace" font-size="1em" text-anchor="middle" x="38.0mm" y="63.0mm">x</text><rect fill="lightgray" height="18mm" rx="1mm" ry="1mm" stroke-width="1" width="18mm" x="48mm" y="48mm" /><text fill="black" font-family="monospace" font-size="1em" text-anchor="middle" x="57.0mm" y="58.0mm">c</text><rect fill="lightgray" height="18mm" rx="1mm" ry="1mm" stroke-width="1" width="18mm" x="67mm" y="53mm" /><text fill="black" font-family="monospace" font-size="1em" text-anchor="middle" x="76.0mm" y="63.0mm">d</text><rect fill="lightgray" height="18mm" rx="1mm" ry="1mm" stroke-width="1" width="18mm" x="86mm" y="53mm" /><text fill="black" font-family="monospace" font-size="1em" text-anchor="middle" x="95.0mm" y="63.0mm">v</text><rect fill="lightgray" height="18mm" rx="1mm" ry="1mm" stroke-width="1" width="18mm" x="120mm" y="53mm" /><text fill="black" font-family="monospace" font-size="1em" text-anchor="middle" x="129.0mm" y="63.0mm">k</text><rect fill="lightgray" height="18mm" rx="1mm" ry="1mm" stroke-width="1" width="18mm" x="139mm" y="53mm" /><text fill="black" font-family="monospace" font-size="1em" text-anchor="middle" x="148.0mm" y="63.0mm">h</text><rect fill="lightgray" height="18mm" rx="1mm" ry="1mm" stroke-width="1" width="18mm" x="158mm" y="48mm" /><text fill="black" font-family="monospace" font-size="1em" text-anchor="middle" x="167.0mm" y="58.0mm">,</text><rect fill="lightgray" height="18mm" rx="1mm" ry="1mm" stroke-width="1" width="18mm" x="177mm" y="53mm" /><text fill="black" font-family="monospace" font-size="1em" text-anchor="middle" x="186.0mm" y="63.0mm">.</text><rect fill="lightgray" height="18mm" rx="1mm" ry="1mm" stroke-width="1" width="18mm" x="196mm" y="58mm" /><text fill="black" font-family="monospace" font-size="1em" text-anchor="middle" x="205.0mm" y="68.0mm">/</text><rect fill="lightgray" height="18mm" rx="1mm" ry="1mm" stroke-width="1" width="18mm" x="67mm" y="72mm" /><text fill="black" font-family="monospace" font-size="1em" text-anchor="middle" x="76.0mm" y="82.0mm">ctl/esc</text><rect fill="lightgray" height="18mm" rx="1mm" ry="1mm" stroke-width="1" width="18mm" x="86mm" y="72mm" /><text fill="black" font-family="monospace" font-size="1em" text-anchor="middle" x="95.0mm" y="82.0mm">sft/bsp</text><rect fill="lightgray" height="18mm" rx="1mm" ry="1mm" stroke-width="1" width="18mm" x="120mm" y="72mm" /><text fill="black" font-family="monospace" font-size="1em" text-anchor="middle" x="129.0mm" y="82.0mm">1/spc</text><rect fill="lightgray" height="18mm" rx="1mm" ry="1mm" stroke-width="1" width="18mm" x="139mm" y="72mm" /><text fill="black" font-family="monospace" font-size="1em" text-anchor="middle" x="148.0mm" y="82.0mm">2/-</text><rect fill="beige" height="5mm" rx="1mm" ry="1mm" width="10mm" x="43.0mm" y="19.0mm" /><text fill="black" font-family="monospace" font-size="0.5em" text-anchor="middle" x="48.0mm" y="22.0mm">untab</text><rect fill="beige" height="5mm" rx="1mm" ry="1mm" width="10mm" x="62.0mm" y="19.0mm" /><text fill="black" font-family="monospace" font-size="0.5em" text-anchor="middle" x="67.0mm" y="22.0mm">tab</text><rect fill="beige" height="5mm" rx="1mm" ry="1mm" width="10mm" x="153.0mm" y="19.0mm" /><text fill="black" font-family="monospace" font-size="0.5em" text-anchor="middle" x="158.0mm" y="22.0mm">save</text><rect fill="beige" height="5mm" rx="1mm" ry="1mm" width="10mm" x="43.0mm" y="57.0mm" /><text fill="black" font-family="monospace" font-size="0.5em" text-anchor="middle" x="48.0mm" y="60.0mm">copy</text><rect fill="beige" height="5mm" rx="1mm" ry="1mm" width="10mm" x="62.0mm" y="57.0mm" /><text fill="black" font-family="monospace" font-size="0.5em" text-anchor="middle" x="67.0mm" y="60.0mm">paste</text><rect fill="beige" height="5mm" rx="1mm" ry="1mm" width="10mm" x="153.0mm" y="57.0mm" /><text fill="black" font-family="monospace" font-size="0.5em" text-anchor="middle" x="158.0mm" y="60.0mm">enter</text><rect fill="beige" height="5mm" rx="1mm" ry="1mm" width="10mm" x="172.0mm" y="57.0mm" /><text fill="black" font-family="monospace" font-size="0.5em" text-anchor="middle" x="177.0mm" y="60.0mm">capsword</text><rect fill="lightgray" height="18mm" rx="1mm" ry="1mm" stroke-width="1" width="18mm" x="10mm" y="105mm" /><text fill="black" font-family="monospace" font-size="1em" text-anchor="middle" x="19.0mm" y="115.0mm">1</text><rect fill="lightgray" height="18mm" rx="1mm" ry="1mm" stroke-width="1" width="18mm" x="29mm" y="100mm" /><text fill="black" font-family="monospace" font-size="1em" text-anchor="middle" x="38.0mm" y="110.0mm">2</text><rect fill="lightgray" height="18mm" rx="1mm" ry="1mm" stroke-width="1" width="18mm" x="48mm" y="95mm" /><text fill="black" font-family="monospace" font-size="1em" text-anchor="middle" x="57.0mm" y="105.0mm">3</text><rect fill="lightgray" height="18mm" rx="1mm" ry="1mm" stroke-width="1" width="18mm" x="67mm" y="100mm" /><text fill="black" font-family="monospace" font-size="1em" text-anchor="middle" x="76.0mm" y="110.0mm">4</text><rect fill="lightgray" height="18mm" rx="1mm" ry="1mm" stroke-width="1" width="18mm" x="86mm" y="100mm" /><text fill="black" font-family="monospace" font-size="1em" text-anchor="middle" x="95.0mm" y="110.0mm">5</text><rect fill="lightgray" height="18mm" rx="1mm" ry="1mm" stroke-width="1" width="18mm" x="120mm" y="100mm" /><text fill="black" font-family="monospace" font-size="1em" text-anchor="middle" x="129.0mm" y="110.0mm">6</text><rect fill="lightgray" height="18mm" rx="1mm" ry="1mm" stroke-width="1" width="18mm" x="139mm" y="100mm" /><text fill="black" font-family="monospace" font-size="1em" text-anchor="middle" x="148.0mm" y="110.0mm">7</text><rect fill="lightgray" height="18mm" rx="1mm" ry="1mm" stroke-width="1" width="18mm" x="158mm" y="95mm" /><text fill="black" font-family="monospace" font-size="1em" text-anchor="middle" x="167.0mm" y="105.0mm">8</text><rect fill="lightgray" height="18mm" rx="1mm" ry="1mm" stroke-width="1" width="18mm" x="177mm" y="100mm" /><text fill="black" font-family="monospace" font-size="1em" text-anchor="middle" x="186.0mm" y="110.0mm">9</text><rect fill="lightgray" height="18mm" rx="1mm" ry="1mm" stroke-width="1" width="18mm" x="196mm" y="105mm" /><text fill="black" font-family="monospace" font-size="1em" text-anchor="middle" x="205.0mm" y="115.0mm">0</text><rect fill="lightgray" height="18mm" rx="1mm" ry="1mm" stroke-width="1" width="18mm" x="10mm" y="124mm" /><text fill="black" font-family="monospace" font-size="1em" text-anchor="middle" x="19.0mm" y="134.0mm">!</text><rect fill="lightgray" height="18mm" rx="1mm" ry="1mm" stroke-width="1" width="18mm" x="29mm" y="119mm" /><text fill="black" font-family="monospace" font-size="1em" text-anchor="middle" x="38.0mm" y="129.0mm">@</text><rect fill="lightgray" height="18mm" rx="1mm" ry="1mm" stroke-width="1" width="18mm" x="48mm" y="114mm" /><text fill="black" font-family="monospace" font-size="1em" text-anchor="middle" x="57.0mm" y="124.0mm">#</text><rect fill="lightgray" height="18mm" rx="1mm" ry="1mm" stroke-width="1" width="18mm" x="67mm" y="119mm" /><text fill="black" font-family="monospace" font-size="1em" text-anchor="middle" x="76.0mm" y="129.0mm">$</text><rect fill="lightgray" height="18mm" rx="1mm" ry="1mm" stroke-width="1" width="18mm" x="86mm" y="119mm" /><text fill="black" font-family="monospace" font-size="1em" text-anchor="middle" x="95.0mm" y="129.0mm">%</text><rect fill="lightgray" height="18mm" rx="1mm" ry="1mm" stroke-width="1" width="18mm" x="120mm" y="119mm" /><text fill="black" font-family="monospace" font-size="1em" text-anchor="middle" x="129.0mm" y="129.0mm">^</text><rect fill="lightgray" height="18mm" rx="1mm" ry="1mm" stroke-width="1" width="18mm" x="139mm" y="119mm" /><text fill="black" font-family="monospace" font-size="1em" text-anchor="middle" x="148.0mm" y="129.0mm">&amp;</text><rect fill="lightgray" height="18mm" rx="1mm" ry="1mm" stroke-width="1" width="18mm" x="158mm" y="114mm" /><text fill="black" font-family="monospace" font-size="1em" text-anchor="middle" x="167.0mm" y="124.0mm">*</text><rect fill="lightgray" height="18mm" rx="1mm" ry="1mm" stroke-width="1" width="18mm" x="177mm" y="119mm" /><text fill="black" font-family="monospace" font-size="1em" text-anchor="middle" x="186.0mm" y="129.0mm">=</text><rect fill="lightgray" height="18mm" rx="1mm" ry="1mm" stroke-width="1" width="18mm" x="196mm" y="124mm" /><text fill="black" font-family="monospace" font-size="1em" text-anchor="middle" x="205.0mm" y="134.0mm">:</text><rect fill="lightgray" height="18mm" rx="1mm" ry="1mm" stroke-width="1" width="18mm" x="10mm" y="143mm" /><text fill="black" font-family="monospace" font-size="1em" text-anchor="middle" x="19.0mm" y="153.0mm">~</text><rect fill="lightgray" height="18mm" rx="1mm" ry="1mm" stroke-width="1" width="18mm" x="29mm" y="138mm" /><text fill="black" font-family="monospace" font-size="1em" text-anchor="middle" x="38.0mm" y="148.0mm">;</text><rect fill="lightgray" height="18mm" rx="1mm" ry="1mm" stroke-width="1" width="18mm" x="48mm" y="133mm" /><text fill="black" font-family="monospace" font-size="1em" text-anchor="middle" x="57.0mm" y="143.0mm">'</text><rect fill="lightgray" height="18mm" rx="1mm" ry="1mm" stroke-width="1" width="18mm" x="67mm" y="138mm" /><text fill="black" font-family="monospace" font-size="1em" text-anchor="middle" x="76.0mm" y="148.0mm">"</text><rect fill="lightgray" height="18mm" rx="1mm" ry="1mm" stroke-width="1" width="18mm" x="86mm" y="138mm" /><text fill="black" font-family="monospace" font-size="1em" text-anchor="middle" x="95.0mm" y="148.0mm">|</text><rect fill="lightgray" height="18mm" rx="1mm" ry="1mm" stroke-width="1" width="18mm" x="120mm" y="138mm" /><text fill="black" font-family="monospace" font-size="1em" text-anchor="middle" x="129.0mm" y="148.0mm">+</text><rect fill="lightgray" height="18mm" rx="1mm" ry="1mm" stroke-width="1" width="18mm" x="139mm" y="138mm" /><text fill="black" font-family="monospace" font-size="1em" text-anchor="middle" x="148.0mm" y="148.0mm">(</text><rect fill="lightgray" height="18mm" rx="1mm" ry="1mm" stroke-width="1" width="18mm" x="158mm" y="133mm" /><text fill="black" font-family="monospace" font-size="1em" text-anchor="middle" x="167.0mm" y="143.0mm">{</text><rect fill="lightgray" height="18mm" rx="1mm" ry="1mm" stroke-width="1" width="18mm" x="177mm" y="138mm" /><text fill="black" font-family="monospace" font-size="1em" text-anchor="middle" x="186.0mm" y="148.0mm">[</text><rect fill="lightgray" height="18mm" rx="1mm" ry="1mm" stroke-width="1" width="18mm" x="196mm" y="143mm" /><text fill="black" font-family="monospace" font-size="1em" text-anchor="middle" x="205.0mm" y="153.0mm">\</text><rect fill="lightgray" height="18mm" rx="1mm" ry="1mm" stroke-width="1" width="18mm" x="67mm" y="157mm" /><text fill="black" font-family="monospace" font-size="1em" text-anchor="middle" x="76.0mm" y="167.0mm">`</text><rect fill="lightgray" height="18mm" rx="1mm" ry="1mm" stroke-width="1" width="18mm" x="86mm" y="157mm" /><text fill="black" font-family="monospace" font-size="1em" text-anchor="middle" x="95.0mm" y="167.0mm">▽</text><rect fill="khaki" height="18mm" rx="1mm" ry="1mm" stroke-width="1" width="18mm" x="120mm" y="157mm" /><text fill="black" font-family="monospace" font-size="1em" text-anchor="middle" x="129.0mm" y="167.0mm" /><rect fill="lightgray" height="18mm" rx="1mm" ry="1mm" stroke-width="1" width="18mm" x="139mm" y="157mm" /><text fill="black" font-family="monospace" font-size="1em" text-anchor="middle" x="148.0mm" y="167.0mm">▽</text><rect fill="lightgray" height="18mm" rx="1mm" ry="1mm" stroke-width="1" width="18mm" x="10mm" y="190mm" /><text fill="black" font-family="monospace" font-size="1em" text-anchor="middle" x="19.0mm" y="200.0mm">▽</text><rect fill="lightgray" height="18mm" rx="1mm" ry="1mm" stroke-width="1" width="18mm" x="29mm" y="185mm" /><text fill="black" font-family="monospace" font-size="1em" text-anchor="middle" x="38.0mm" y="195.0mm">▽</text><rect fill="lightgray" height="18mm" rx="1mm" ry="1mm" stroke-width="1" width="18mm" x="48mm" y="180mm" /><text fill="black" font-family="monospace" font-size="1em" text-anchor="middle" x="57.0mm" y="190.0mm">▽</text><rect fill="lightgray" height="18mm" rx="1mm" ry="1mm" stroke-width="1" width="18mm" x="67mm" y="185mm" /><text fill="black" font-family="monospace" font-size="1em" text-anchor="middle" x="76.0mm" y="195.0mm">▽</text><rect fill="lightgray" height="18mm" rx="1mm" ry="1mm" stroke-width="1" width="18mm" x="86mm" y="185mm" /><text fill="black" font-family="monospace" font-size="1em" text-anchor="middle" x="95.0mm" y="195.0mm">▽</text><rect fill="lightgray" height="18mm" rx="1mm" ry="1mm" stroke-width="1" width="18mm" x="120mm" y="185mm" /><text fill="black" font-family="monospace" font-size="1em" text-anchor="middle" x="129.0mm" y="195.0mm">mute</text><rect fill="lightgray" height="18mm" rx="1mm" ry="1mm" stroke-width="1" width="18mm" x="139mm" y="185mm" /><text fill="black" font-family="monospace" font-size="1em" text-anchor="middle" x="148.0mm" y="195.0mm">vol-</text><rect fill="lightgray" height="18mm" rx="1mm" ry="1mm" stroke-width="1" width="18mm" x="158mm" y="180mm" /><text fill="black" font-family="monospace" font-size="1em" text-anchor="middle" x="167.0mm" y="190.0mm">vol+</text><rect fill="lightgray" height="18mm" rx="1mm" ry="1mm" stroke-width="1" width="18mm" x="177mm" y="185mm" /><text fill="black" font-family="monospace" font-size="1em" text-anchor="middle" x="186.0mm" y="195.0mm">▽</text><rect fill="lightgray" height="18mm" rx="1mm" ry="1mm" stroke-width="1" width="18mm" x="196mm" y="190mm" /><text fill="black" font-family="monospace" font-size="1em" text-anchor="middle" x="205.0mm" y="200.0mm">sleep</text><rect fill="lightgray" height="18mm" rx="1mm" ry="1mm" stroke-width="1" width="18mm" x="10mm" y="209mm" /><text fill="black" font-family="monospace" font-size="1em" text-anchor="middle" x="19.0mm" y="219.0mm">▽</text><rect fill="lightgray" height="18mm" rx="1mm" ry="1mm" stroke-width="1" width="18mm" x="29mm" y="204mm" /><text fill="black" font-family="monospace" font-size="1em" text-anchor="middle" x="38.0mm" y="214.0mm">▽</text><rect fill="lightgray" height="18mm" rx="1mm" ry="1mm" stroke-width="1" width="18mm" x="48mm" y="199mm" /><text fill="black" font-family="monospace" font-size="1em" text-anchor="middle" x="57.0mm" y="209.0mm">c+s+←</text><rect fill="lightgray" height="18mm" rx="1mm" ry="1mm" stroke-width="1" width="18mm" x="67mm" y="204mm" /><text fill="black" font-family="monospace" font-size="1em" text-anchor="middle" x="76.0mm" y="214.0mm">c+s+→</text><rect fill="lightgray" height="18mm" rx="1mm" ry="1mm" stroke-width="1" width="18mm" x="86mm" y="204mm" /><text fill="black" font-family="monospace" font-size="1em" text-anchor="middle" x="95.0mm" y="214.0mm">▽</text><rect fill="lightgray" height="18mm" rx="1mm" ry="1mm" stroke-width="1" width="18mm" x="120mm" y="204mm" /><text fill="black" font-family="monospace" font-size="1em" text-anchor="middle" x="129.0mm" y="214.0mm">←</text><rect fill="lightgray" height="18mm" rx="1mm" ry="1mm" stroke-width="1" width="18mm" x="139mm" y="204mm" /><text fill="black" font-family="monospace" font-size="1em" text-anchor="middle" x="148.0mm" y="214.0mm">↓</text><rect fill="lightgray" height="18mm" rx="1mm" ry="1mm" stroke-width="1" width="18mm" x="158mm" y="199mm" /><text fill="black" font-family="monospace" font-size="1em" text-anchor="middle" x="167.0mm" y="209.0mm">↑</text><rect fill="lightgray" height="18mm" rx="1mm" ry="1mm" stroke-width="1" width="18mm" x="177mm" y="204mm" /><text fill="black" font-family="monospace" font-size="1em" text-anchor="middle" x="186.0mm" y="214.0mm">→</text><rect fill="lightgray" height="18mm" rx="1mm" ry="1mm" stroke-width="1" width="18mm" x="196mm" y="209mm" /><text fill="black" font-family="monospace" font-size="1em" text-anchor="middle" x="205.0mm" y="219.0mm">▽</text><rect fill="lightgray" height="18mm" rx="1mm" ry="1mm" stroke-width="1" width="18mm" x="10mm" y="228mm" /><text fill="black" font-family="monospace" font-size="1em" text-anchor="middle" x="19.0mm" y="238.0mm">▽</text><rect fill="lightgray" height="18mm" rx="1mm" ry="1mm" stroke-width="1" width="18mm" x="29mm" y="223mm" /><text fill="black" font-family="monospace" font-size="1em" text-anchor="middle" x="38.0mm" y="233.0mm">▽</text><rect fill="lightgray" height="18mm" rx="1mm" ry="1mm" stroke-width="1" width="18mm" x="48mm" y="218mm" /><text fill="black" font-family="monospace" font-size="1em" text-anchor="middle" x="57.0mm" y="228.0mm">c+a+←</text><rect fill="lightgray" height="18mm" rx="1mm" ry="1mm" stroke-width="1" width="18mm" x="67mm" y="223mm" /><text fill="black" font-family="monospace" font-size="1em" text-anchor="middle" x="76.0mm" y="233.0mm">c+s+→</text><rect fill="lightgray" height="18mm" rx="1mm" ry="1mm" stroke-width="1" width="18mm" x="86mm" y="223mm" /><text fill="black" font-family="monospace" font-size="1em" text-anchor="middle" x="95.0mm" y="233.0mm">▽</text><rect fill="lightgray" height="18mm" rx="1mm" ry="1mm" stroke-width="1" width="18mm" x="120mm" y="223mm" /><text fill="black" font-family="monospace" font-size="1em" text-anchor="middle" x="129.0mm" y="233.0mm">▽</text><rect fill="lightgray" height="18mm" rx="1mm" ry="1mm" stroke-width="1" width="18mm" x="139mm" y="223mm" /><text fill="black" font-family="monospace" font-size="1em" text-anchor="middle" x="148.0mm" y="233.0mm">▽</text><rect fill="lightgray" height="18mm" rx="1mm" ry="1mm" stroke-width="1" width="18mm" x="158mm" y="218mm" /><text fill="black" font-family="monospace" font-size="1em" text-anchor="middle" x="167.0mm" y="228.0mm">▽</text><rect fill="lightgray" height="18mm" rx="1mm" ry="1mm" stroke-width="1" width="18mm" x="177mm" y="223mm" /><text fill="black" font-family="monospace" font-size="1em" text-anchor="middle" x="186.0mm" y="233.0mm">▽</text><rect fill="lightgray" height="18mm" rx="1mm" ry="1mm" stroke-width="1" width="18mm" x="196mm" y="228mm" /><text fill="black" font-family="monospace" font-size="1em" text-anchor="middle" x="205.0mm" y="238.0mm">▽</text><rect fill="lightgray" height="18mm" rx="1mm" ry="1mm" stroke-width="1" width="18mm" x="67mm" y="242mm" /><text fill="black" font-family="monospace" font-size="1em" text-anchor="middle" x="76.0mm" y="252.0mm">▽</text><rect fill="lightgray" height="18mm" rx="1mm" ry="1mm" stroke-width="1" width="18mm" x="86mm" y="242mm" /><text fill="black" font-family="monospace" font-size="1em" text-anchor="middle" x="95.0mm" y="252.0mm">▽</text><rect fill="lightgray" height="18mm" rx="1mm" ry="1mm" stroke-width="1" width="18mm" x="120mm" y="242mm" /><text fill="black" font-family="monospace" font-size="1em" text-anchor="middle" x="129.0mm" y="252.0mm">▽</text><rect fill="khaki" height="18mm" rx="1mm" ry="1mm" stroke-width="1" width="18mm" x="139mm" y="242mm" /><text fill="black" font-family="monospace" font-size="1em" text-anchor="middle" x="148.0mm" y="252.0mm" /><rect fill="khaki" height="18mm" rx="1mm" ry="1mm" stroke-width="1" width="18mm" x="10mm" y="275mm" /><text fill="black" font-family="monospace" font-size="1em" text-anchor="middle" x="19.0mm" y="285.0mm" /><rect fill="lightgray" height="18mm" rx="1mm" ry="1mm" stroke-width="1" width="18mm" x="29mm" y="270mm" /><text fill="black" font-family="monospace" font-size="1em" text-anchor="middle" x="38.0mm" y="280.0mm">bt_0</text><rect fill="lightgray" height="18mm" rx="1mm" ry="1mm" stroke-width="1" width="18mm" x="48mm" y="265mm" /><text fill="black" font-family="monospace" font-size="1em" text-anchor="middle" x="57.0mm" y="275.0mm">bt_1</text><rect fill="lightgray" height="18mm" rx="1mm" ry="1mm" stroke-width="1" width="18mm" x="67mm" y="270mm" /><text fill="black" font-family="monospace" font-size="1em" text-anchor="middle" x="76.0mm" y="280.0mm">bt_2</text><rect fill="lightgray" height="18mm" rx="1mm" ry="1mm" stroke-width="1" width="18mm" x="86mm" y="270mm" /><text fill="black" font-family="monospace" font-size="1em" text-anchor="middle" x="95.0mm" y="280.0mm">▽</text><rect fill="lightgray" height="18mm" rx="1mm" ry="1mm" stroke-width="1" width="18mm" x="120mm" y="270mm" /><text fill="black" font-family="monospace" font-size="1em" text-anchor="middle" x="129.0mm" y="280.0mm">▽</text><rect fill="lightgray" height="18mm" rx="1mm" ry="1mm" stroke-width="1" width="18mm" x="139mm" y="270mm" /><text fill="black" font-family="monospace" font-size="1em" text-anchor="middle" x="148.0mm" y="280.0mm">▽</text><rect fill="lightgray" height="18mm" rx="1mm" ry="1mm" stroke-width="1" width="18mm" x="158mm" y="265mm" /><text fill="black" font-family="monospace" font-size="1em" text-anchor="middle" x="167.0mm" y="275.0mm">▽</text><rect fill="lightgray" height="18mm" rx="1mm" ry="1mm" stroke-width="1" width="18mm" x="177mm" y="270mm" /><text fill="black" font-family="monospace" font-size="1em" text-anchor="middle" x="186.0mm" y="280.0mm">▽</text><rect fill="lightgray" height="18mm" rx="1mm" ry="1mm" stroke-width="1" width="18mm" x="196mm" y="275mm" /><text fill="black" font-family="monospace" font-size="1em" text-anchor="middle" x="205.0mm" y="285.0mm">▽</text><rect fill="lightgray" height="18mm" rx="1mm" ry="1mm" stroke-width="1" width="18mm" x="10mm" y="294mm" /><text fill="black" font-family="monospace" font-size="1em" text-anchor="middle" x="19.0mm" y="304.0mm">▽</text><rect fill="lightgray" height="18mm" rx="1mm" ry="1mm" stroke-width="1" width="18mm" x="29mm" y="289mm" /><text fill="black" font-family="monospace" font-size="1em" text-anchor="middle" x="38.0mm" y="299.0mm">▽</text><rect fill="lightgray" height="18mm" rx="1mm" ry="1mm" stroke-width="1" width="18mm" x="48mm" y="284mm" /><text fill="black" font-family="monospace" font-size="1em" text-anchor="middle" x="57.0mm" y="294.0mm">bt_prv</text><rect fill="lightgray" height="18mm" rx="1mm" ry="1mm" stroke-width="1" width="18mm" x="67mm" y="289mm" /><text fill="black" font-family="monospace" font-size="1em" text-anchor="middle" x="76.0mm" y="299.0mm">bt_nxt</text><rect fill="lightgray" height="18mm" rx="1mm" ry="1mm" stroke-width="1" width="18mm" x="86mm" y="289mm" /><text fill="black" font-family="monospace" font-size="1em" text-anchor="middle" x="95.0mm" y="299.0mm">▽</text><rect fill="lightgray" height="18mm" rx="1mm" ry="1mm" stroke-width="1" width="18mm" x="120mm" y="289mm" /><text fill="black" font-family="monospace" font-size="1em" text-anchor="middle" x="129.0mm" y="299.0mm">▽</text><rect fill="lightgray" height="18mm" rx="1mm" ry="1mm" stroke-width="1" width="18mm" x="139mm" y="289mm" /><text fill="black" font-family="monospace" font-size="1em" text-anchor="middle" x="148.0mm" y="299.0mm">▽</text><rect fill="lightgray" height="18mm" rx="1mm" ry="1mm" stroke-width="1" width="18mm" x="158mm" y="284mm" /><text fill="black" font-family="monospace" font-size="1em" text-anchor="middle" x="167.0mm" y="294.0mm">▽</text><rect fill="lightgray" height="18mm" rx="1mm" ry="1mm" stroke-width="1" width="18mm" x="177mm" y="289mm" /><text fill="black" font-family="monospace" font-size="1em" text-anchor="middle" x="186.0mm" y="299.0mm">▽</text><rect fill="lightgray" height="18mm" rx="1mm" ry="1mm" stroke-width="1" width="18mm" x="196mm" y="294mm" /><text fill="black" font-family="monospace" font-size="1em" text-anchor="middle" x="205.0mm" y="304.0mm">▽</text><rect fill="lightgray" height="18mm" rx="1mm" ry="1mm" stroke-width="1" width="18mm" x="10mm" y="313mm" /><text fill="black" font-family="monospace" font-size="1em" text-anchor="middle" x="19.0mm" y="323.0mm">▽</text><rect fill="lightgray" height="18mm" rx="1mm" ry="1mm" stroke-width="1" width="18mm" x="29mm" y="308mm" /><text fill="black" font-family="monospace" font-size="1em" text-anchor="middle" x="38.0mm" y="318.0mm">▽</text><rect fill="lightgray" height="18mm" rx="1mm" ry="1mm" stroke-width="1" width="18mm" x="48mm" y="303mm" /><text fill="black" font-family="monospace" font-size="1em" text-anchor="middle" x="57.0mm" y="313.0mm">▽</text><rect fill="lightgray" height="18mm" rx="1mm" ry="1mm" stroke-width="1" width="18mm" x="67mm" y="308mm" /><text fill="black" font-family="monospace" font-size="1em" text-anchor="middle" x="76.0mm" y="318.0mm">▽</text><rect fill="lightgray" height="18mm" rx="1mm" ry="1mm" stroke-width="1" width="18mm" x="86mm" y="308mm" /><text fill="black" font-family="monospace" font-size="1em" text-anchor="middle" x="95.0mm" y="318.0mm">bootloader</text><rect fill="lightgray" height="18mm" rx="1mm" ry="1mm" stroke-width="1" width="18mm" x="120mm" y="308mm" /><text fill="black" font-family="monospace" font-size="1em" text-anchor="middle" x="129.0mm" y="318.0mm">▽</text><rect fill="lightgray" height="18mm" rx="1mm" ry="1mm" stroke-width="1" width="18mm" x="139mm" y="308mm" /><text fill="black" font-family="monospace" font-size="1em" text-anchor="middle" x="148.0mm" y="318.0mm">▽</text><rect fill="lightgray" height="18mm" rx="1mm" ry="1mm" stroke-width="1" width="18mm" x="158mm" y="303mm" /><text fill="black" font-family="monospace" font-size="1em" text-anchor="middle" x="167.0mm" y="313.0mm">▽</text><rect fill="lightgray" height="18mm" rx="1mm" ry="1mm" stroke-width="1" width="18mm" x="177mm" y="308mm" /><text fill="black" font-family="monospace" font-size="1em" text-anchor="middle" x="186.0mm" y="318.0mm">▽</text><rect fill="lightgray" height="18mm" rx="1mm" ry="1mm" stroke-width="1" width="18mm" x="196mm" y="313mm" /><text fill="black" font-family="monospace" font-size="1em" text-anchor="middle" x="205.0mm" y="323.0mm">▽</text><rect fill="lightgray" height="18mm" rx="1mm" ry="1mm" stroke-width="1" width="18mm" x="67mm" y="327mm" /><text fill="black" font-family="monospace" font-size="1em" text-anchor="middle" x="76.0mm" y="337.0mm">▽</text><rect fill="lightgray" height="18mm" rx="1mm" ry="1mm" stroke-width="1" width="18mm" x="86mm" y="327mm" /><text fill="black" font-family="monospace" font-size="1em" text-anchor="middle" x="95.0mm" y="337.0mm">▽</text><rect fill="lightgray" height="18mm" rx="1mm" ry="1mm" stroke-width="1" width="18mm" x="120mm" y="327mm" /><text fill="black" font-family="monospace" font-size="1em" text-anchor="middle" x="129.0mm" y="337.0mm">▽</text><rect fill="lightgray" height="18mm" rx="1mm" ry="1mm" stroke-width="1" width="18mm" x="139mm" y="327mm" /><text fill="black" font-family="monospace" font-size="1em" text-anchor="middle" x="148.0mm" y="337.0mm">▽</text></svg>