<?xml version="1.0" encoding="UTF-8" standalone="no"?>
<svg
   viewBox="0 0 793.7007874015749 1122.5196850393702"
   width="793.7007874015749"
   height="1122.5196850393702"
   version="1.1"
   id="svg1252"
   sodipodi:docname="nice plate v3 fixed right.svg"
   inkscape:version="1.2.1 (9c6d41e, 2022-07-14)"
   xmlns:inkscape="http://www.inkscape.org/namespaces/inkscape"
   xmlns:sodipodi="http://sodipodi.sourceforge.net/DTD/sodipodi-0.dtd"
   xmlns="http://www.w3.org/2000/svg"
   xmlns:svg="http://www.w3.org/2000/svg">
  <sodipodi:namedview
     id="namedview1254"
     pagecolor="#ffffff"
     bordercolor="#000000"
     borderopacity="0.25"
     inkscape:showpageshadow="2"
     inkscape:pageopacity="0.0"
     inkscape:pagecheckerboard="0"
     inkscape:deskcolor="#d1d1d1"
     showgrid="false"
     showguides="false"
     inkscape:zoom="0.78127808"
     inkscape:cx="384.62618"
     inkscape:cy="929.88658"
     inkscape:window-width="1390"
     inkscape:window-height="1027"
     inkscape:window-x="0"
     inkscape:window-y="25"
     inkscape:window-maximized="0"
     inkscape:current-layer="g1250" />
  <desc
     id="desc686">nice_plate(2).dxf - scale = 1.000000, origin = (0.000000, 0.000000), method = manual</desc>
  <defs
     id="defs698">
    <marker
       id="DistanceX"
       orient="auto"
       refX="0.0"
       refY="0.0"
       style="overflow:visible">
      <path
         d="M 3,-3 L -3,3 M 0,-5 L  0,5"
         style="stroke:#000000; stroke-width:0.5"
         id="path688" />
    </marker>
    <pattern
       id="Hatch"
       patternUnits="userSpaceOnUse"
       width="8"
       height="8"
       x="0"
       y="0">
      <path
         d="M8 4 l-4,4"
         stroke="#000000"
         stroke-width="0.25"
         linecap="square"
         id="path691" />
      <path
         d="M6 2 l-4,4"
         stroke="#000000"
         stroke-width="0.25"
         linecap="square"
         id="path693" />
      <path
         d="M4 0 l-4,4"
         stroke="#000000"
         stroke-width="0.25"
         linecap="square"
         id="path695" />
    </pattern>
  </defs>
  <g
     inkscape:groupmode="layer"
     inkscape:label="0"
     id="g1250">
    <path
       id="path1248"
       style="fill:none;stroke:#000000"
       d="m 399.04015,864.03002 c 0,-4.17475 -3.3843,-7.55905 -7.55906,-7.55905 -4.17475,0 -7.55905,3.3843 -7.55905,7.55905 0,4.17475 3.3843,7.55905 7.55905,7.55905 4.17476,0 7.55906,-3.3843 7.55906,-7.55905 z m -122.25156,78.00105 c 0,-4.17475 -3.3843,-7.55905 -7.55906,-7.55905 -4.17475,0 -7.55905,3.3843 -7.55905,7.55905 0,4.17475 3.3843,7.55905 7.55905,7.55905 4.17476,0 7.55906,-3.3843 7.55906,-7.55905 z M 209.8577,862.26594 c 0,-4.17476 -3.38431,-7.55906 -7.55906,-7.55906 -4.17475,0 -7.55906,3.3843 -7.55906,7.55906 0,4.17476 3.38431,7.55906 7.55906,7.55906 4.17475,0 7.55906,-3.3843 7.55906,-7.55906 z m 64.32979,-111.63986 c -0.002,-4.17368 -3.38538,-7.5563 -7.55905,-7.5563 -4.17368,0 -7.55754,3.38262 -7.55906,7.5563 0.002,4.17368 3.38538,7.5563 7.55906,7.5563 4.17367,0 7.55753,-3.38262 7.55905,-7.5563 z M 217.96465,540.79961 c 0,-4.17475 -3.3843,-7.55905 -7.55906,-7.55905 -4.17475,0 -7.55905,3.3843 -7.55905,7.55905 0,4.17475 3.3843,7.55905 7.55905,7.55905 4.17476,0 7.55906,-3.3843 7.55906,-7.55905 z m 260.02003,144.47395 c 0,-4.17475 -3.3843,-7.55905 -7.55905,-7.55905 -4.17476,0 -7.55906,3.3843 -7.55906,7.55905 0,4.17475 3.3843,7.55905 7.55906,7.55905 4.17475,0 7.55905,-3.3843 7.55905,-7.55905 z M 432.32784,450.50864 c 0,-4.17475 -3.3843,-7.55905 -7.55906,-7.55905 -4.17475,0 -7.55905,3.3843 -7.55905,7.55905 0,4.17475 3.3843,7.55905 7.55905,7.55905 4.17476,0 7.55906,-3.3843 7.55906,-7.55905 z m -56.47372,105.6084 c 0,-4.17475 -3.3843,-7.55905 -7.55906,-7.55905 -4.17475,0 -7.55905,3.3843 -7.55905,7.55905 0,4.17475 3.3843,7.55905 7.55905,7.55905 4.17476,0 7.55906,-3.3843 7.55906,-7.55905 z m 160.02434,-6.06588 c 0,-4.17475 -3.3843,-7.55905 -7.55906,-7.55905 -4.17475,0 -7.55905,3.3843 -7.55905,7.55905 0,4.17475 3.3843,7.55905 7.55905,7.55905 4.17476,0 7.55906,-3.3843 7.55906,-7.55905 z m 148.44086,-12.98689 c 0,-4.17475 -3.3843,-7.55905 -7.55906,-7.55905 -4.17475,0 -7.55905,3.3843 -7.55905,7.55905 0,4.17475 3.3843,7.55905 7.55905,7.55905 4.17476,0 7.55906,-3.3843 7.55906,-7.55905 z m -58.86381,151.12271 c 0,-4.17475 -3.3843,-7.55905 -7.55906,-7.55905 -4.17475,0 -7.55905,3.3843 -7.55905,7.55905 0,4.17475 3.3843,7.55905 7.55905,7.55905 4.17476,0 7.55906,-3.3843 7.55906,-7.55905 z m -365.38933,227.49009 39.811,-33.41 -33.405,-39.81 -39.81,33.41 z m 64.302,-49.13 47.1,-21.96 -21.963,-47.1 -47.099,21.96 z m -86.162,-267.26 50.197,-13.46 -13.45,-50.19 -50.198,13.45 z m 18.586,69.36 50.197,-13.45 -13.45,-50.2 -50.198,13.45 z m 68.783,55.91 -13.45,-50.19 -50.198,13.45 13.451,50.19 z m -36.347,-212.312 13.451,50.202 50.197,-13.46 -13.45,-50.193 z m 32.037,119.562 50.197,-13.45 -13.45,-50.2 -50.198,13.45 z m 18.586,69.36 50.198,-13.45 -13.451,-50.19 -50.198,13.45 z m 75.893,-236.762 -50.833,10.805 10.805,50.837 50.833,-10.809 z m -35.902,81.042 10.804,50.84 50.833,-10.81 -10.805,-50.83 z m 14.93,70.25 10.805,50.83 50.833,-10.81 -10.805,-50.83 z m 102.372,-145.64 -51.179,9.024 9.025,51.176 51.179,-9.021 z m -29.684,130.92 51.179,-9.02 -9.025,-51.18 -51.179,9.02 z m 12.469,70.72 51.179,-9.02 -9.024,-51.18 -51.179,9.02 z m 114.486,-117.47 -51.771,4.53 4.53,51.77 51.77,-4.53 z m -40.983,127.84 51.771,-4.53 -4.529,-51.77 -51.771,4.53 z m 117.05,-82.33 -4.529,-51.77 -51.771,4.53 4.529,51.77 z M 620.3023,704.19634 c 8.33865,-0.73023 14.50696,-8.08133 13.77766,-16.41958 l -4.93778,-56.43973 56.43913,-4.93894 c 8.33867,-0.72848 14.50698,-8.07958 13.77866,-16.41958 l -6.74813,-77.11009 c -0.72887,-8.33714 -8.07997,-14.50545 -16.41858,-13.77615 l -139.93908,12.24476 -1.39781,-7.925 -2.9e-4,-0.003 -12.46913,-70.71703 c -1.45373,-8.24325 -9.31447,-13.7474 -17.55773,-12.29393 l -63.31804,11.16498 -1.14612,-5.39313 c -1.74032,-8.18767 -9.7884,-13.41423 -17.9759,-11.67381 l -75.71312,16.09327 c -8.1876,1.74044 -13.41407,9.78848 -11.67382,17.9759 l 0.51396,2.41896 -65.78692,17.62803 c -8.08508,2.16644 -12.88317,10.47699 -10.71692,18.56206 l 0.96884,3.61391 -54.72494,14.66142 c -8.08511,2.16883 -12.88321,10.47937 -10.71693,18.56606 l 18.58487,69.36152 h 0.001 0 l 18.586,69.37 1.448,5.4 h 0.001 l 18.5851,69.36121 c 0.38642,1.44297 0.9836,2.81975 1.7721,4.08779 l -4.32407,35.91861 c -0.8641,0.47333 -1.67986,1.03211 -2.43532,1.66419 l -59.29573,49.7574 c -6.412,5.37976 -7.24837,14.93944 -1.86804,21.35107 l 72.83471,86.80033 c 5.38013,6.41287 14.9398,7.24923 21.35206,1.86904 l 56.46719,-47.37983 66.1138,-30.83063 c 7.58594,-3.53809 10.86803,-12.55556 7.33038,-20.14054 L 361.80537,757.90893 c -0.97928,-2.09861 -2.42741,-3.94646 -4.23303,-5.40074 l 2.24084,-27.83102 49.7348,-13.32208 c 8.08496,-2.16857 12.88305,-10.47912 10.71642,-18.56606 l -0.22522,-0.84186 33.887,-7.20012 0.76118,4.31926 c 1.45368,8.2425 9.31441,13.74664 17.55772,12.29193 l 54.0611,-9.53121 0.46696,5.33879 c 0.72949,8.33731 8.08059,14.50562 16.41908,13.77365 z"
       sodipodi:nodetypes="ssssssssssssssscscscssssssssssssssssssssssssssssssssssscccccccccccccccccccccccccccccccccccccccccccccccccccccccccccccccccccccccccccccccccccccccccccccccccccccccccccccccccccccccccccccccccccccccccccccccccc" />
  </g>
</svg>
