<?xml version="1.0" encoding="UTF-8" standalone="no"?>
<svg
   viewBox="0 0 793.7007874015749 1122.5196850393702"
   width="793.7007874015749"
   height="1122.5196850393702"
   version="1.1"
   id="svg1327"
   sodipodi:docname="nice_bottom bigger holes.svg"
   inkscape:version="1.2.1 (9c6d41e, 2022-07-14)"
   xmlns:inkscape="http://www.inkscape.org/namespaces/inkscape"
   xmlns:sodipodi="http://sodipodi.sourceforge.net/DTD/sodipodi-0.dtd"
   xmlns="http://www.w3.org/2000/svg"
   xmlns:svg="http://www.w3.org/2000/svg">
  <sodipodi:namedview
     id="namedview1329"
     pagecolor="#ffffff"
     bordercolor="#000000"
     borderopacity="0.25"
     inkscape:showpageshadow="2"
     inkscape:pageopacity="0.0"
     inkscape:pagecheckerboard="0"
     inkscape:deskcolor="#d1d1d1"
     showgrid="false"
     inkscape:zoom="1.2982444"
     inkscape:cx="299.63541"
     inkscape:cy="273.83134"
     inkscape:window-width="1390"
     inkscape:window-height="1027"
     inkscape:window-x="0"
     inkscape:window-y="25"
     inkscape:window-maximized="0"
     inkscape:current-layer="g1325" />
  <desc
     id="desc1049">nice_bottom(1).dxf - scale = 1.000000, origin = (0.000000, 0.000000), method = manual</desc>
  <defs
     id="defs1061">
    <marker
       id="DistanceX"
       orient="auto"
       refX="0.0"
       refY="0.0"
       style="overflow:visible">
      <path
         d="M 3,-3 L -3,3 M 0,-5 L  0,5"
         style="stroke:#000000; stroke-width:0.5"
         id="path1051" />
    </marker>
    <pattern
       id="Hatch"
       patternUnits="userSpaceOnUse"
       width="8"
       height="8"
       x="0"
       y="0">
      <path
         d="M8 4 l-4,4"
         stroke="#000000"
         stroke-width="0.25"
         linecap="square"
         id="path1054" />
      <path
         d="M6 2 l-4,4"
         stroke="#000000"
         stroke-width="0.25"
         linecap="square"
         id="path1056" />
      <path
         d="M4 0 l-4,4"
         stroke="#000000"
         stroke-width="0.25"
         linecap="square"
         id="path1058" />
    </pattern>
  </defs>
  <g
     inkscape:groupmode="layer"
     inkscape:label="0"
     id="g1325">
    <path
       style="fill:none;stroke:#000000"
       d="m 211.61954,312.49946 0.46703,-5.3388 54.06103,9.5312 c 8.24323,1.4547 16.10395,-4.04942 17.55772,-12.2919 l 0.76125,-4.3193 33.887,7.20001 -0.22578,0.84181 c -2.16619,8.08696 2.6319,16.39749 10.71691,18.56605 l 49.73487,13.32214 2.24077,27.8311 c -1.80568,1.45427 -3.25381,3.30214 -4.23352,5.40076 l -47.88649,102.697 c -3.53773,7.58499 -0.25564,16.60248 7.33037,20.14055 l 66.11387,30.8306 56.46712,47.37985 c 6.41221,5.38022 15.97188,4.54384 21.35206,-1.86905 l 72.83471,-86.80035 c 5.38025,-6.41163 4.54388,-15.97128 -1.86803,-21.35105 l -59.29574,-49.7574 c -0.75552,-0.63207 -1.57128,-1.19086 -2.43532,-1.66421 l -4.32457,-35.9187 c 0.78895,-1.26813 1.38612,-2.64492 1.7726,-4.08789 l 18.58567,-69.3612 1.4475,-5.4 0.001,-0.01 18.586,-69.36 18.5858,-69.3615 c 2.16627,-8.08669 -2.63183,-16.39729 -10.71692,-18.5661 l -54.72488,-14.6614 0.96877,-3.61391 c 2.16619,-8.08507 -2.6319,-16.39562 -10.71692,-18.56206 l -65.78685,-17.628038 0.51389,-2.41896 c 1.7402,-8.187421 -3.48627,-16.235475 -11.67382,-17.9759 L 316.00352,49.829647 c -8.18751,-1.740338 -16.23555,3.486126 -17.9759,11.673815 l -1.14605,5.39321 -63.31811,-11.164985 c -8.24332,-1.453476 -16.10406,4.050673 -17.55773,12.29393 L 214.49157,76.612672 95.635332,66.214627 C 89.397035,65.668789 83.897451,70.283485 83.35167,76.521722 l -5.188198,59.300938 -15.964194,-1.39677 c -8.338525,-0.72929 -15.689636,5.43904 -16.419128,13.77617 l -6.746283,77.1101 c -0.729499,8.34 5.438803,15.69107 13.777304,16.41955 l 56.439499,4.93895 -4.9378,56.43975 c -0.72948,8.33825 5.43882,15.68932 13.77731,16.41955 l 77.11028,6.74315 c 8.33842,0.73198 15.68953,-5.43633 16.41908,-13.77365 z"
       id="path5109" />
    <path
       style="fill:#000000;fill-opacity:1;stroke:none;stroke-width:1"
       d="m 133.72451,303.52056 c 0,-7.30581 -5.92252,-13.22834 -13.22835,-13.22834 -7.30582,0 -13.22834,5.92253 -13.22834,13.22834 0,7.30581 5.92252,13.22834 13.22834,13.22834 7.30583,0 13.22835,-5.92253 13.22835,-13.22834 z"
       id="path5107" />
    <path
       style="fill:#000000;fill-opacity:1;stroke:none;stroke-width:1"
       d="m 74.860709,152.39785 c 0,-7.30581 -5.922532,-13.22833 -13.228347,-13.22833 -7.305814,0 -13.228346,5.92252 -13.228346,13.22833 0,7.30582 5.922532,13.22834 13.228346,13.22834 7.305815,0 13.228347,-5.92252 13.228347,-13.22834 z"
       id="path5105" />
    <path
       style="fill:#000000;fill-opacity:1;stroke:none;stroke-width:1"
       d="m 223.30156,165.38476 c 0,-7.30581 -5.92252,-13.22834 -13.22835,-13.22834 -7.30581,0 -13.22834,5.92253 -13.22834,13.22834 0,7.30581 5.92253,13.22834 13.22834,13.22834 7.30583,0 13.22835,-5.92253 13.22835,-13.22834 z"
       id="path5103" />
    <path
       style="fill:#000000;fill-opacity:1;stroke:none;stroke-width:1"
       d="m 383.3259,171.45065 c 0,-7.30581 -5.92253,-13.22833 -13.22836,-13.22833 -7.30581,0 -13.22834,5.92252 -13.22834,13.22833 0,7.30582 5.92253,13.22834 13.22834,13.22834 7.30583,0 13.22836,-5.92252 13.22836,-13.22834 z"
       id="path5101" />
    <path
       style="fill:#000000;fill-opacity:1;stroke:none;stroke-width:1"
       d="m 326.85218,65.842232 c 0,-7.30582 -5.92253,-13.228341 -13.22836,-13.228341 -7.30581,0 -13.22834,5.922521 -13.22834,13.228341 0,7.30582 5.92253,13.228341 13.22834,13.228341 7.30583,0 13.22836,-5.922522 13.22836,-13.228341 z"
       id="path5099" />
    <path
       style="fill:#000000;fill-opacity:1;stroke:none;stroke-width:1"
       d="m 281.19534,300.60716 c 0,-7.30581 -5.92253,-13.22834 -13.22836,-13.22834 -7.30581,0 -13.22834,5.92253 -13.22834,13.22834 0,7.30581 5.92253,13.22834 13.22834,13.22834 7.30583,0 13.22836,-5.92253 13.22836,-13.22834 z"
       id="path5097" />
    <path
       style="fill:#000000;fill-opacity:1;stroke:none;stroke-width:1"
       d="m 541.21537,156.13316 c 0,-7.30581 -5.92253,-13.22834 -13.22836,-13.22834 -7.30581,0 -13.22833,5.92253 -13.22833,13.22834 0,7.30581 5.92252,13.22834 13.22833,13.22834 7.30583,0 13.22836,-5.92253 13.22836,-13.22834 z"
       id="path5095" />
    <path
       style="fill:#000000;fill-opacity:1;stroke:none;stroke-width:1"
       d="m 484.99255,365.95966 c 0,-7.30583 -5.92255,-13.22835 -13.22836,-13.22835 -7.30581,0 -13.22835,5.92252 -13.22835,13.22835 0,7.30583 5.92254,13.22836 13.22835,13.22836 7.30581,0 13.22836,-5.92253 13.22836,-13.22836 z"
       id="path5093" />
    <path
       style="fill:#000000;fill-opacity:1;stroke:none;stroke-width:1"
       d="m 549.32233,477.59956 c -0.003,-7.30394 -5.92442,-13.22353 -13.22836,-13.22353 -7.30392,0 -13.22567,5.91959 -13.22833,13.22353 0.004,7.30394 5.92441,13.22353 13.22833,13.22353 7.30394,0 13.2257,-5.91959 13.22836,-13.22353 z"
       id="path5091" />
    <path
       style="fill:#000000;fill-opacity:1;stroke:none;stroke-width:1"
       d="m 482.39144,557.36465 c 0,-7.30581 -5.92253,-13.22833 -13.22836,-13.22833 -7.30581,0 -13.22834,5.92252 -13.22834,13.22833 0,7.30582 5.92253,13.22834 13.22834,13.22834 7.30583,0 13.22836,-5.92252 13.22836,-13.22834 z"
       id="path5089" />
    <path
       style="fill:#000000;fill-opacity:1;stroke:none;stroke-width:1"
       d="m 360.13987,479.36366 c 0,-7.30581 -5.92252,-13.22833 -13.22835,-13.22833 -7.30581,0 -13.22834,5.92252 -13.22834,13.22833 0,7.30582 5.92253,13.22834 13.22834,13.22834 7.30583,0 13.22835,-5.92252 13.22835,-13.22834 z"
       id="path1301" />
  </g>
</svg>
