<?xml version="1.0" encoding="UTF-8" standalone="no"?>
<svg
   viewBox="0 0 793.7007874015749 1122.5196850393702"
   width="793.7007874015749"
   height="1122.5196850393702"
   version="1.1"
   id="svg2357"
   sodipodi:docname="nice plate v2 fixed.svg"
   inkscape:version="1.2.1 (9c6d41e, 2022-07-14)"
   xmlns:inkscape="http://www.inkscape.org/namespaces/inkscape"
   xmlns:sodipodi="http://sodipodi.sourceforge.net/DTD/sodipodi-0.dtd"
   xmlns="http://www.w3.org/2000/svg"
   xmlns:svg="http://www.w3.org/2000/svg">
  <sodipodi:namedview
     id="namedview2359"
     pagecolor="#ffffff"
     bordercolor="#000000"
     borderopacity="0.25"
     inkscape:showpageshadow="2"
     inkscape:pageopacity="0.0"
     inkscape:pagecheckerboard="0"
     inkscape:deskcolor="#d1d1d1"
     showgrid="false"
     inkscape:zoom="0.74965396"
     inkscape:cx="98.045237"
     inkscape:cy="664.97348"
     inkscape:window-width="1390"
     inkscape:window-height="1027"
     inkscape:window-x="0"
     inkscape:window-y="25"
     inkscape:window-maximized="0"
     inkscape:current-layer="g2355" />
  <desc
     id="desc1791">nice_plate(1).dxf - scale = 1.000000, origin = (0.000000, 0.000000), method = manual</desc>
  <defs
     id="defs1803">
    <marker
       id="DistanceX"
       orient="auto"
       refX="0.0"
       refY="0.0"
       style="overflow:visible">
      <path
         d="M 3,-3 L -3,3 M 0,-5 L  0,5"
         style="stroke:#000000; stroke-width:0.5"
         id="path1793" />
    </marker>
    <pattern
       id="Hatch"
       patternUnits="userSpaceOnUse"
       width="8"
       height="8"
       x="0"
       y="0">
      <path
         d="M8 4 l-4,4"
         stroke="#000000"
         stroke-width="0.25"
         linecap="square"
         id="path1796" />
      <path
         d="M6 2 l-4,4"
         stroke="#000000"
         stroke-width="0.25"
         linecap="square"
         id="path1798" />
      <path
         d="M4 0 l-4,4"
         stroke="#000000"
         stroke-width="0.25"
         linecap="square"
         id="path1800" />
    </pattern>
  </defs>
  <g
     inkscape:groupmode="layer"
     inkscape:label="0"
     id="g2355">
    <path
       id="path2293"
       style="display:inline;fill:none;stroke:#000000"
       d="m 397.56338,368.7504 c -7.04922,-0.0536 -13.40102,4.84359 -14.92383,12.00782 l -1.14648,5.39453 -63.31836,-11.16602 c -8.24331,-1.45348 -16.10297,4.05167 -17.55664,12.29492 l -1.51367,8.58594 -118.85742,-10.39844 c -6.2383,-0.54584 -11.73743,4.07036 -12.28321,10.3086 l -5.1875,59.30078 -15.96484,-1.39844 c -8.3385,-0.72929 -15.69042,5.44022 -16.41992,13.77734 l -6.74609,77.10938 c -0.72954,8.33999 5.43882,15.69145 13.77734,16.41992 l 56.43945,4.93945 -4.9375,56.43946 c -0.72951,8.33824 5.43884,15.6897 13.77734,16.41992 l 77.11133,6.74219 c 8.33842,0.73197 15.68842,-5.43613 16.41797,-13.77344 l 0.4668,-5.33789 54.06054,9.53125 c 8.24325,1.4547 16.10486,-4.05049 17.5586,-12.29297 l 0.76172,-4.31836 33.88672,7.19922 -0.22657,0.8418 c -2.16619,8.08693 2.63178,16.39783 10.7168,18.5664 l 49.73633,13.32227 2.24023,27.83008 c -1.80568,1.45427 -3.25465,3.30373 -4.23437,5.40234 l -47.88672,102.69531 c -3.53772,7.58497 -0.25396,16.60254 7.33203,20.14063 l 66.11328,30.83201 56.4668,47.3789 c 6.4122,5.3802 15.97139,4.5438 21.35156,-1.8691 l 72.83594,-86.8008 c 5.38026,-6.41161 4.54279,-15.96985 -1.86914,-21.34961 l -59.29492,-49.75781 c -0.75552,-0.63208 -1.57151,-1.19072 -2.43555,-1.66406 L 569.48721,696.184 c 0.78894,-1.26813 1.385,-2.64493 1.77148,-4.08789 l 18.58594,-69.35938 1.44727,-5.40039 0.002,-0.01 18.58594,-69.36133 18.58594,-69.36133 c 2.16621,-8.08667 -2.63177,-16.39758 -10.7168,-18.56641 l -54.72461,-14.66015 0.96875,-3.61524 c 2.16619,-8.08506 -2.63179,-16.39411 -10.7168,-18.56054 l -65.78711,-17.62891 0.51368,-2.41797 c 1.74018,-8.18741 -3.4863,-16.23612 -11.67383,-17.97656 l -75.71289,-16.09375 c -1.02344,-0.21754 -2.04571,-0.32633 -3.05274,-0.33399 z m 0.67188,8.78711 c 4.17475,0 7.56054,3.3858 7.56054,7.56055 0,4.17475 -3.38579,7.55859 -7.56054,7.55859 -4.17475,0 -7.5586,-3.38384 -7.5586,-7.55859 0,-4.17475 3.38385,-7.56055 7.5586,-7.56055 z m -220.61133,16.24024 124.25,10.86914 -0.49414,5.64843 -124.25,-10.87109 z m 229.63672,5.21679 50.83203,10.80469 -10.80469,50.83594 -50.83203,-10.80859 z m -81.40039,5.65039 51.17773,9.02539 -9.02344,51.17579 -51.17968,-9.02149 z m 157.71875,28.73829 50.19726,13.45117 -13.45117,50.20117 -50.19726,-13.45898 z m -310.89649,16.87109 124.25,10.87109 -0.49414,5.65039 -124.25,-10.87304 z m -26.4375,13.8457 c 4.1726,0 7.5556,3.38013 7.5586,7.55274 -0.003,4.1726 -3.386,7.55468 -7.5586,7.55468 -4.1726,0 -7.55754,-3.38208 -7.56054,-7.55468 0.003,-4.17261 3.38794,-7.55274 7.56054,-7.55274 z m 466.35352,3.72852 c 4.17474,0 7.56054,3.3858 7.56054,7.56055 10e-6,4.17474 -3.3858,7.55859 -7.56054,7.55859 -4.17476,0 -7.5586,-3.38385 -7.5586,-7.55859 0,-4.17475 3.38384,-7.56055 7.5586,-7.56055 z m -220.26953,1.4082 50.83398,10.79883 -10.80469,50.83984 -50.83203,-10.81054 z m 155.72265,0.98828 50.19727,13.45117 -13.45117,50.19922 -50.19532,-13.45898 z m -234.66015,5.14063 51.17773,9.01953 -9.02539,51.17969 -51.17773,-9.01954 z m -18.70703,1.71484 c 4.17475,0 7.56054,3.38385 7.56054,7.5586 0,4.17474 -3.38579,7.56054 -7.56054,7.56054 -4.17475,0 -7.5586,-3.3858 -7.5586,-7.56054 0,-4.17475 3.38385,-7.5586 7.5586,-7.5586 z m -137.63282,5.47461 51.77149,4.53125 -4.5293,51.76953 -51.77148,-4.52929 z m 297.65821,0.5918 c 4.17475,0 7.55859,3.38385 7.55859,7.55859 0,4.17475 -3.38384,7.5586 -7.55859,7.5586 -4.17475,0 -7.5586,-3.38385 -7.5586,-7.5586 0,-4.17474 3.38385,-7.55859 7.5586,-7.55859 z m -226.1211,5.66797 51.77149,4.53125 -4.5293,51.76953 -51.77148,-4.5293 z m 236.4043,13.93164 50.19727,13.44922 -13.45118,50.19921 -50.19726,-13.44921 z m -87.59375,36.72851 50.83398,10.81055 -10.80664,50.83008 -50.83203,-10.81055 z m 152.06641,0.11133 50.19726,13.44922 -13.45117,50.20117 -50.19727,-13.45117 z m -228.54493,6.5 51.17969,9.01953 -9.02539,51.17969 -51.17969,-9.01953 z m -78.58984,14.26953 51.76953,4.5293 -4.5293,51.77148 -51.76953,-4.53125 z m 224.07617,11.75977 50.19727,13.44922 -13.45117,50.1914 -50.19727,-13.45117 z m 64.47266,36.83984 50.19726,13.45117 -13.45117,50.18946 -50.19726,-13.45118 z m -158.30078,3.34766 c 4.17475,0 7.55859,3.38385 7.55859,7.55859 0,4.17475 -3.38384,7.56055 -7.55859,7.56055 -4.17475,0 -7.5586,-3.3858 -7.5586,-7.56055 0,-4.17474 3.38385,-7.55859 7.5586,-7.55859 z M 205.1083,615.2172 c 4.17476,0 7.5586,3.38385 7.5586,7.55859 0,4.17475 -3.38384,7.5586 -7.5586,7.5586 -4.17474,0 -7.55859,-3.38385 -7.55859,-7.5586 0,-4.17474 3.38385,-7.55859 7.55859,-7.55859 z m 351.26758,62.44141 c 4.17368,0 7.5566,3.38296 7.5586,7.55664 -0.002,4.17367 -3.38492,7.55664 -7.5586,7.55664 -4.17366,0 -7.55659,-3.38297 -7.55859,-7.55664 0.002,-4.17368 3.38493,-7.55664 7.55859,-7.55664 z m -82.87695,54.41797 47.09961,21.95898 -21.96289,47.09961 -47.09961,-21.95899 z m 83.0332,44.96874 39.81055,33.41016 -33.4043,39.81052 -39.81054,-33.41013 z m 64.17383,12.25 c 4.17475,0 7.55859,3.38384 7.55859,7.5586 0,4.17475 -3.38384,7.56055 -7.55859,7.56055 -4.17475,0 -7.55859,-3.3858 -7.55859,-7.56055 0,-4.17476 3.38384,-7.5586 7.55859,-7.5586 z M 431.52432,791.059 c 4.17475,0 7.55859,3.3858 7.55859,7.56054 0,4.17475 -3.38384,7.5586 -7.55859,7.5586 -4.17476,0 -7.56055,-3.38385 -7.56055,-7.5586 0,-4.17474 3.38579,-7.56054 7.56055,-7.56054 z m 122.25,78.002 c 4.17475,0 7.56055,3.3837 7.56055,7.5585 0,4.1748 -3.3858,7.5586 -7.56055,7.5586 -4.17476,0 -7.55859,-3.3838 -7.55859,-7.5586 0,-4.1748 3.38383,-7.5585 7.55859,-7.5585 z" />
  </g>
</svg>
