<?xml version="1.0" encoding="UTF-8" standalone="no"?>
<svg
   viewBox="0 0 793.7007874015749 1122.5196850393702"
   width="793.7007874015749"
   height="1122.5196850393702"
   version="1.1"
   id="svg4361"
   sodipodi:docname="perimeter_switch_plate with holes fixed.svg"
   inkscape:version="1.2.1 (9c6d41e, 2022-07-14)"
   xmlns:inkscape="http://www.inkscape.org/namespaces/inkscape"
   xmlns:sodipodi="http://sodipodi.sourceforge.net/DTD/sodipodi-0.dtd"
   xmlns="http://www.w3.org/2000/svg"
   xmlns:svg="http://www.w3.org/2000/svg">
  <sodipodi:namedview
     id="namedview4363"
     pagecolor="#ffffff"
     bordercolor="#000000"
     borderopacity="0.25"
     inkscape:showpageshadow="2"
     inkscape:pageopacity="0.0"
     inkscape:pagecheckerboard="0"
     inkscape:deskcolor="#d1d1d1"
     showgrid="false"
     inkscape:zoom="0.91381462"
     inkscape:cx="312.42661"
     inkscape:cy="734.83175"
     inkscape:window-width="1390"
     inkscape:window-height="1027"
     inkscape:window-x="0"
     inkscape:window-y="25"
     inkscape:window-maximized="0"
     inkscape:current-layer="g4359" />
  <desc
     id="desc3831">perimeter_switch_plate(2).dxf - scale = 1.000000, origin = (0.000000, 0.000000), method = manual</desc>
  <defs
     id="defs3843">
    <marker
       id="DistanceX"
       orient="auto"
       refX="0.0"
       refY="0.0"
       style="overflow:visible">
      <path
         d="M 3,-3 L -3,3 M 0,-5 L  0,5"
         style="stroke:#000000; stroke-width:0.5"
         id="path3833" />
    </marker>
    <pattern
       id="Hatch"
       patternUnits="userSpaceOnUse"
       width="8"
       height="8"
       x="0"
       y="0">
      <path
         d="M8 4 l-4,4"
         stroke="#000000"
         stroke-width="0.25"
         linecap="square"
         id="path3836" />
      <path
         d="M6 2 l-4,4"
         stroke="#000000"
         stroke-width="0.25"
         linecap="square"
         id="path3838" />
      <path
         d="M4 0 l-4,4"
         stroke="#000000"
         stroke-width="0.25"
         linecap="square"
         id="path3840" />
    </pattern>
  </defs>
  <g
     inkscape:groupmode="layer"
     inkscape:label="0"
     id="g4359">
    <path
       id="path4059"
       style="fill:none;fill-opacity:1;stroke:#000000"
       d="M 373.31055 595.26758 C 364.94189 595.09643 358.01878 601.74249 357.84766 610.11133 L 357.73633 615.62305 L 293.44727 616.55273 C 285.07767 616.67382 278.39082 623.55622 278.51172 631.92578 L 278.65039 641.5 C 278.59019 641.505 278.53053 641.51168 278.4707 641.51758 L 207.03125 648.81055 C 200.80146 649.44633 196.26639 655.01043 196.90234 661.24023 L 202.86133 719.61523 L 139.91992 726.03906 C 131.59289 726.88933 125.53106 734.33054 126.38086 742.65625 L 134.24219 819.66016 C 135.0925 827.98869 142.53054 834.0503 150.85742 833.19922 L 207.2207 827.44727 L 212.97461 883.80859 C 213.8246 892.13543 221.26459 898.19702 229.5918 897.34766 L 306.5957 889.48438 C 314.92313 888.63675 320.98453 881.197 320.13477 872.87109 L 319.58984 867.53906 L 374.47852 866.74414 C 382.84826 866.62427 389.53474 859.74187 389.41406 851.37305 L 389.35156 846.98633 L 423.98633 847.69336 L 423.92383 848.5625 C 423.31553 856.91239 429.58905 864.17219 437.9375 864.7832 L 489.28906 868.52539 L 496.71875 895.43945 C 495.21845 897.20706 494.14417 899.29376 493.57617 901.53906 L 465.83594 1011.4043 C 463.78629 1019.5188 468.70474 1027.7586 476.82031 1029.8086 L 547.54883 1047.6699 L 611.91211 1083.5977 C 619.22088 1087.6774 628.45164 1085.0595 632.53125 1077.75 L 687.76172 978.8125 C 691.84158 971.50427 689.22446 962.27075 681.91602 958.19141 L 614.32812 920.46094 C 613.46732 919.98206 612.56063 919.58579 611.62305 919.2832 L 600.62891 884.81641 C 601.16556 883.42264 601.49306 881.95863 601.60156 880.46875 L 606.82422 808.85156 L 607.23242 803.27539 L 607.23047 803.26562 L 612.45508 731.64844 L 617.67969 660.0293 C 618.28807 651.67966 612.01454 644.41984 603.66602 643.80859 L 547.16016 639.68945 L 547.43359 635.95703 C 548.04225 627.60898 541.76797 620.3472 533.41992 619.73828 L 465.49219 614.78516 L 465.54297 612.3125 C 465.71398 603.94395 459.06793 597.02084 450.69922 596.84961 L 373.31055 595.26758 z M 372.5625 604.02539 A 7.559055 7.559055 0 0 1 381.40625 610.02148 A 7.5593586 7.5593586 0 0 1 366.55664 612.86133 A 7.559055 7.559055 0 0 1 372.5625 604.02539 z M 384.99414 622.91406 L 437.89648 623.99414 L 436.81641 676.90039 L 383.91211 675.81641 L 384.99414 622.91406 z M 466.43945 642.32812 L 519.21289 646.17773 L 515.36328 698.94727 L 462.5918 695.10352 L 466.43945 642.32812 z M 358.99609 643.00781 L 359.76172 695.91602 L 306.85352 696.68164 L 306.08789 643.77344 L 358.99609 643.00781 z M 599.94141 654.21875 A 7.5590552 7.5590552 0 0 1 608.78516 660.22266 A 7.5593586 7.5593586 0 0 1 593.93555 663.0625 A 7.5590552 7.5590552 0 0 1 599.94141 654.21875 z M 536.68555 666.40039 L 589.45898 670.24609 L 585.60938 723.01758 L 532.83789 719.17383 L 536.68555 666.40039 z M 383.52734 694.70898 L 436.42773 695.79102 L 435.3457 748.69531 L 382.44531 747.61523 L 383.52734 694.70898 z M 461.21484 713.94727 L 513.99023 717.80078 L 510.14062 770.57422 L 457.36719 766.71875 L 461.21484 713.94727 z M 360.03516 714.81055 L 360.80078 767.71875 L 307.89062 768.48242 L 307.125 715.57422 L 360.03516 714.81055 z M 141.31836 736.375 A 7.5590552 7.5590552 0 0 1 150.16406 742.37891 A 7.5593586 7.5593586 0 0 1 135.31445 745.21875 A 7.5590552 7.5590552 0 0 1 141.31836 736.375 z M 531.46289 738.01758 L 584.23633 741.87109 L 580.38672 794.64453 L 527.61328 790.79102 L 531.46289 738.01758 z M 278.96289 739.39062 L 284.33789 792.02734 L 231.69727 797.40234 L 226.32422 744.76562 L 278.96289 739.39062 z M 207.52344 746.68164 L 212.89648 799.31836 L 160.25781 804.69336 L 154.88477 752.05664 L 207.52344 746.68164 z M 382.05664 766.50391 L 434.95898 767.58398 L 433.87891 820.49023 L 380.97656 819.41016 L 382.05664 766.50391 z M 455.99414 785.57422 L 508.76562 789.41797 L 504.91602 842.18945 L 452.14453 838.3457 L 455.99414 785.57422 z M 361.07227 786.61523 L 361.83789 839.52344 L 308.92969 840.28711 L 308.16406 787.37891 L 361.07227 786.61523 z M 526.24023 809.64453 L 579.01172 813.48828 L 575.16211 866.26172 L 522.39062 862.41797 L 526.24023 809.64453 z M 286.25781 810.83203 L 291.63086 863.46875 L 238.99023 868.8457 L 233.61719 816.20703 L 286.25781 810.83203 z M 371.82422 843.17969 A 7.5590552 7.5590552 0 0 1 380.66797 849.18359 A 7.5590552 7.5590552 0 0 1 365.82031 852.02344 A 7.5590552 7.5590552 0 0 1 371.82422 843.17969 z M 584.26953 869.08008 A 7.5590601 7.5590601 0 0 1 593.11523 875.08594 A 7.5593586 7.5593586 0 0 1 578.26562 877.92578 A 7.5590601 7.5590601 0 0 1 584.26953 869.08008 z M 227.34375 871.96094 A 7.5590552 7.5590552 0 0 1 236.1875 877.96484 A 7.5590552 7.5590552 0 0 1 221.33984 880.80469 A 7.5590552 7.5590552 0 0 1 227.34375 871.96094 z M 512.75 937.52539 L 564.05469 950.48828 L 551.09961 1001.7852 L 499.79688 988.83398 L 512.75 937.52539 z M 602.91602 966.03516 L 649.11719 991.82422 L 623.32422 1038.0215 L 577.12305 1012.2324 L 602.91602 966.03516 z M 668.42773 966.64844 A 7.5590555 7.5590555 0 0 1 677.27344 972.65039 A 7.5595421 7.5595421 0 0 1 662.42383 975.49219 A 7.5590555 7.5590555 0 0 1 668.42773 966.64844 z M 482.94727 1003.9316 A 7.559055 7.559055 0 0 1 491.79102 1009.9258 A 7.5593586 7.5593586 0 0 1 476.94141 1012.7656 A 7.559055 7.559055 0 0 1 482.94727 1003.9316 z M 617.67383 1057.5664 A 7.559058 7.559058 0 0 1 626.51953 1063.5703 A 7.5593586 7.5593586 0 0 1 611.66992 1066.4102 A 7.559058 7.559058 0 0 1 617.67383 1057.5664 z " />
  </g>
</svg>
