0
SECTION
2
HEADER
9
$INSUNITS
70
4
0
ENDSEC
0
SECTION
2
TABLES
0
TABLE
2
LTYPE
0
LTYPE
72
65
70
64
2
CONTINUOUS
3
______
73
0
40
0
0
ENDTAB
0
TABLE
2
LAYER
0
ENDTAB
0
ENDSEC
0
SECTION
2
ENTITIES
0
LINE
8
0
10
-8.6358701
20
10.2918292
11
-6.979911
21
29.2195285
0
LINE
8
0
10
-6.979911
20
29.2195285
11
39.622604
21
49.6327579
0
LINE
8
0
10
39.622604
20
49.6327579
11
62.7207032
21
50.690494
0
LINE
8
0
10
62.7207032
20
50.690494
11
81.3055076
21
46.7401718
0
LINE
8
0
10
81.3055076
20
46.7401718
11
102.8365468
21
36.2561212
0
LINE
8
0
10
102.8365468
20
36.2561212
11
121.2006818
21
25.6087877
0
LINE
8
0
10
121.2006818
20
25.6087877
11
118.4391987
21
-61.3535161
0
LINE
8
0
10
118.4391987
20
-61.3535161
11
105.9740771
21
-75.6929981
0
LINE
8
0
10
105.9740771
20
-75.6929981
11
72.7890812
21
-54.2914991
0
LINE
8
0
10
72.7890812
20
-54.2914991
11
9.582255
21
-10.3746272
0
LINE
8
0
10
9.582255
20
-10.3746272
11
-8.6358701
21
10.2918292
0
LINE
8
0
10
-5.927494
20
12.5644266
11
8.0192318
21
11.3442462
0
LINE
8
0
10
8.0192318
20
11.3442462
11
9.2394122
21
25.290972
0
LINE
8
0
10
9.2394122
20
25.290972
11
-4.7073136
21
26.5111524
0
LINE
8
0
10
-4.7073136
20
26.5111524
11
-5.927494
21
12.5644266
0
LINE
8
0
10
12.2906311
20
-8.1020298
11
26.2373569
21
-9.3222102
0
LINE
8
0
10
26.2373569
20
-9.3222102
11
27.4575373
21
4.6245156
0
LINE
8
0
10
27.4575373
20
4.6245156
11
13.5108115
21
5.844696
0
LINE
8
0
10
13.5108115
20
5.844696
11
12.2906311
21
-8.1020298
0
LINE
8
0
10
13.9465902
20
10.8256694
11
27.893316
21
9.605489
0
LINE
8
0
10
27.893316
20
9.605489
11
29.1134964
21
23.5522148
0
LINE
8
0
10
29.1134964
20
23.5522148
11
15.1667706
21
24.7723952
0
LINE
8
0
10
15.1667706
20
24.7723952
11
13.9465902
21
10.8256694
0
LINE
8
0
10
32.6207977
20
-4.4733851
11
46.4081062
21
-6.9044596
0
LINE
8
0
10
46.4081062
20
-6.9044596
11
48.8391807
21
6.8828489
0
LINE
8
0
10
48.8391807
20
6.8828489
11
35.0518722
21
9.3139234
0
LINE
8
0
10
35.0518722
20
9.3139234
11
32.6207977
21
-4.4733851
0
LINE
8
0
10
35.9201131
20
14.2379623
11
49.7074216
21
11.8068878
0
LINE
8
0
10
49.7074216
20
11.8068878
11
52.1384961
21
25.5941963
0
LINE
8
0
10
52.1384961
20
25.5941963
11
38.3511876
21
28.0252708
0
LINE
8
0
10
38.3511876
20
28.0252708
11
35.9201131
21
14.2379623
0
LINE
8
0
10
39.2194285
20
32.9493096
11
53.006737
21
30.5182351
0
LINE
8
0
10
53.006737
20
30.5182351
11
55.4378115
21
44.3055436
0
LINE
8
0
10
55.4378115
20
44.3055436
11
41.650503
21
46.7366181
0
LINE
8
0
10
41.650503
20
46.7366181
11
39.2194285
21
32.9493096
0
LINE
8
0
10
53.8348851
20
-3.1383296
11
67.5289515
21
-6.0490932
0
LINE
8
0
10
67.5289515
20
-6.0490932
11
70.4397151
21
7.6449732
0
LINE
8
0
10
70.4397151
20
7.6449732
11
56.7456487
21
10.5557368
0
LINE
8
0
10
56.7456487
20
10.5557368
11
53.8348851
21
-3.1383296
0
LINE
8
0
10
57.7852072
20
15.4464749
11
71.4792736
21
12.5357113
0
LINE
8
0
10
71.4792736
20
12.5357113
11
74.3900372
21
26.2297777
0
LINE
8
0
10
74.3900372
20
26.2297777
11
60.6959708
21
29.1405413
0
LINE
8
0
10
60.6959708
20
29.1405413
11
57.7852072
21
15.4464749
0
LINE
8
0
10
61.7355293
20
34.0312793
11
75.4295957
21
31.1205157
0
LINE
8
0
10
75.4295957
20
31.1205157
11
78.3403593
21
44.8145821
0
LINE
8
0
10
78.3403593
20
44.8145821
11
64.6462929
21
47.7253457
0
LINE
8
0
10
64.6462929
20
47.7253457
11
61.7355293
21
34.0312793
0
LINE
8
0
10
71.9534929
20
-11.5846248
11
85.4111567
21
-15.4435478
0
LINE
8
0
10
85.4111567
20
-15.4435478
11
89.2700797
21
-1.985884
0
LINE
8
0
10
89.2700797
20
-1.985884
11
75.8124159
21
1.873039
0
LINE
8
0
10
75.8124159
20
1.873039
11
71.9534929
21
-11.5846248
0
LINE
8
0
10
77.1906027
20
6.6793474
11
90.6482665
21
2.8204244
0
LINE
8
0
10
90.6482665
20
2.8204244
11
94.5071895
21
16.2780882
0
LINE
8
0
10
94.5071895
20
16.2780882
11
81.0495257
21
20.1370112
0
LINE
8
0
10
81.0495257
20
20.1370112
11
77.1906027
21
6.6793474
0
LINE
8
0
10
82.4277124
20
24.9433196
11
95.8853762
21
21.0843966
0
LINE
8
0
10
95.8853762
20
21.0843966
11
99.7442992
21
34.5420604
0
LINE
8
0
10
99.7442992
20
34.5420604
11
86.2866354
21
38.4009834
0
LINE
8
0
10
86.2866354
20
38.4009834
11
82.4277124
21
24.9433196
0
LINE
8
0
10
89.4873955
20
-21.6856884
11
102.8756621
21
-25.7788922
0
LINE
8
0
10
102.8756621
20
-25.7788922
11
106.9688659
21
-12.3906256
0
LINE
8
0
10
106.9688659
20
-12.3906256
11
93.5805993
21
-8.2974218
0
LINE
8
0
10
93.5805993
20
-8.2974218
11
89.4873955
21
-21.6856884
0
LINE
8
0
10
95.0424578
20
-3.515898
11
108.4307244
21
-7.6091018
0
LINE
8
0
10
108.4307244
20
-7.6091018
11
112.5239282
21
5.7791648
0
LINE
8
0
10
112.5239282
20
5.7791648
11
99.1356616
21
9.8723686
0
LINE
8
0
10
99.1356616
20
9.8723686
11
95.0424578
21
-3.515898
0
LINE
8
0
10
100.5975202
20
14.6538923
11
113.9857868
21
10.5606885
0
LINE
8
0
10
113.9857868
20
10.5606885
11
118.0789906
21
23.9489551
0
LINE
8
0
10
118.0789906
20
23.9489551
11
104.690724
21
28.0421589
0
LINE
8
0
10
104.690724
20
28.0421589
11
100.5975202
21
14.6538923
0
LINE
8
0
10
88.7151108
20
-59.277638
11
94.8523069
21
-46.6945213
0
LINE
8
0
10
94.8523069
20
-46.6945213
11
82.2691902
21
-40.5573252
0
LINE
8
0
10
82.2691902
20
-40.5573252
11
76.1319941
21
-53.1404419
0
LINE
8
0
10
76.1319941
20
-53.1404419
11
88.7151108
21
-59.277638
0
LINE
8
0
10
105.7274508
20
-72.1660766
11
114.9122772
21
-61.6001424
0
LINE
8
0
10
114.9122772
20
-61.6001424
11
104.346343
21
-52.415316
0
LINE
8
0
10
104.346343
20
-52.415316
11
95.1615166
21
-62.9812502
0
LINE
8
0
10
95.1615166
20
-62.9812502
11
105.7274508
21
-72.1660766
0
ENDSEC
0
EOF