<?xml version="1.0" encoding="UTF-8" standalone="no"?>
<svg
   viewBox="0 0 793.7007874015749 1122.5196850393702"
   width="793.7007874015749"
   height="1122.5196850393702"
   version="1.1"
   id="svg12410"
   sodipodi:docname="nice_bottom_right_bigger_holes.svg"
   inkscape:version="1.2.1 (9c6d41e, 2022-07-14)"
   xmlns:inkscape="http://www.inkscape.org/namespaces/inkscape"
   xmlns:sodipodi="http://sodipodi.sourceforge.net/DTD/sodipodi-0.dtd"
   xmlns="http://www.w3.org/2000/svg"
   xmlns:svg="http://www.w3.org/2000/svg">
  <sodipodi:namedview
     id="namedview12412"
     pagecolor="#ffffff"
     bordercolor="#000000"
     borderopacity="0.25"
     inkscape:showpageshadow="2"
     inkscape:pageopacity="0.0"
     inkscape:pagecheckerboard="0"
     inkscape:deskcolor="#d1d1d1"
     showgrid="false"
     inkscape:zoom="0.9526397"
     inkscape:cx="572.61943"
     inkscape:cy="682.83949"
     inkscape:window-width="1390"
     inkscape:window-height="1027"
     inkscape:window-x="0"
     inkscape:window-y="25"
     inkscape:window-maximized="0"
     inkscape:current-layer="g12408" />
  <desc
     id="desc12132">nice_bottom(1).dxf - scale = 1.000000, origin = (0.000000, 0.000000), method = manual</desc>
  <defs
     id="defs12144">
    <marker
       id="DistanceX"
       orient="auto"
       refX="0.0"
       refY="0.0"
       style="overflow:visible">
      <path
         d="M 3,-3 L -3,3 M 0,-5 L  0,5"
         style="stroke:#000000; stroke-width:0.5"
         id="path12134" />
    </marker>
    <pattern
       id="Hatch"
       patternUnits="userSpaceOnUse"
       width="8"
       height="8"
       x="0"
       y="0">
      <path
         d="M8 4 l-4,4"
         stroke="#000000"
         stroke-width="0.25"
         linecap="square"
         id="path12137" />
      <path
         d="M6 2 l-4,4"
         stroke="#000000"
         stroke-width="0.25"
         linecap="square"
         id="path12139" />
      <path
         d="M4 0 l-4,4"
         stroke="#000000"
         stroke-width="0.25"
         linecap="square"
         id="path12141" />
    </pattern>
  </defs>
  <g
     inkscape:groupmode="layer"
     inkscape:label="0"
     id="g12408">
    <path
       style="fill:none;stroke:#000000"
       d="m 575.10136,524.27504 c 8.33866,-0.73022 14.50697,-8.08132 13.77765,-16.41958 l -4.93778,-56.43973 56.43914,-4.93894 c 8.33866,-0.72848 14.50697,-8.07958 13.77865,-16.41958 l -6.74813,-77.11009 c -0.72887,-8.33714 -8.07997,-14.50545 -16.41858,-13.77615 l -139.93908,12.24476 -1.3978,-7.925 -3e-4,-0.003 L 477.186,272.7707 c -1.45373,-8.24326 -9.31447,-13.7474 -17.55773,-12.29393 l -63.31804,11.16497 -1.14612,-5.39322 c -1.74041,-8.18768 -9.78845,-13.41414 -17.97589,-11.67372 l -75.71313,16.09327 c -8.1876,1.74044 -13.41406,9.78849 -11.67381,17.9759 l 0.51395,2.41896 -65.78692,17.62803 c -8.08508,2.16644 -12.88317,10.47699 -10.71692,18.56206 l 0.96884,3.61391 -54.72494,14.66142 c -8.08511,2.16883 -12.8832,10.47938 -10.71692,18.56606 l 18.58486,69.36152 h 0.001 l 18.586,69.37 1.448,5.4 h 0.001 v 0 l 18.58511,69.36121 c 0.38642,1.44298 0.98359,2.81976 1.77209,4.08779 l -4.32406,35.91861 c -0.86411,0.47333 -1.67986,1.03212 -2.43533,1.6642 l -59.29573,49.75739 c -6.412,5.37976 -7.24837,14.93944 -1.86803,21.35107 l 72.83471,86.80034 c 5.38012,6.41287 14.93979,7.24923 21.35206,1.86903 l 56.46718,-47.37983 66.1138,-30.83063 c 7.58594,-3.53809 10.86803,-12.55556 7.33037,-20.14054 L 316.60442,577.98762 c -0.97927,-2.0986 -2.42741,-3.94646 -4.23302,-5.40074 l 2.24083,-27.83103 49.7348,-13.32206 c 8.08496,-2.16857 12.88305,-10.47912 10.71642,-18.56606 l -0.22522,-0.84188 33.887,-7.20011 0.76118,4.31928 c 1.45368,8.24249 9.31442,13.74664 17.55772,12.29193 l 54.0611,-9.53122 0.46696,5.33879 c 0.7295,8.3373 8.0806,14.50561 16.41908,13.77365 z"
       id="path12957" />
    <path
       style="fill:#000000;fill-opacity:1;stroke:none;stroke-width:1"
       d="m 585.92385,508.26567 c 0,-7.30581 -5.92253,-13.22834 -13.22834,-13.22834 -7.30583,0 -13.22835,5.92253 -13.22835,13.22834 0,7.30582 5.92252,13.22834 13.22835,13.22834 7.30581,0 13.22834,-5.92253 13.22834,-13.22834 z"
       id="path12955" />
    <path
       style="fill:#000000;fill-opacity:1;stroke:none;stroke-width:1"
       d="m 644.78766,357.14296 c 0,-7.30581 -5.92253,-13.22834 -13.22836,-13.22834 -7.30581,0 -13.22833,5.92253 -13.22833,13.22834 0,7.30581 5.92252,13.22834 13.22833,13.22834 7.30583,0 13.22836,-5.92253 13.22836,-13.22834 z"
       id="path12953" />
    <path
       style="fill:#000000;fill-opacity:1;stroke:none;stroke-width:1"
       d="m 496.34681,370.12986 c 0,-7.30581 -5.92252,-13.22833 -13.22834,-13.22833 -7.30583,0 -13.22835,5.92252 -13.22835,13.22833 0,7.30582 5.92252,13.22834 13.22835,13.22834 7.30582,0 13.22834,-5.92252 13.22834,-13.22834 z"
       id="path12951" />
    <path
       style="fill:#000000;fill-opacity:1;stroke:none;stroke-width:1"
       d="m 336.32247,376.19573 c 0,-7.30582 -5.92252,-13.22834 -13.22833,-13.22834 -7.30583,0 -13.22836,5.92252 -13.22836,13.22834 0,7.30581 5.92253,13.22834 13.22836,13.22834 7.30581,0 13.22833,-5.92253 13.22833,-13.22834 z"
       id="path12949" />
    <path
       style="fill:#000000;fill-opacity:1;stroke:none;stroke-width:1"
       d="m 392.79618,270.58734 c 0,-7.30581 -5.92253,-13.22833 -13.22836,-13.22833 -7.30581,0 -13.22834,5.92252 -13.22834,13.22833 0,7.30582 5.92253,13.22834 13.22834,13.22834 7.30583,0 13.22836,-5.92252 13.22836,-13.22834 z"
       id="path12947" />
    <path
       style="fill:#000000;fill-opacity:1;stroke:none;stroke-width:1"
       d="m 438.45302,505.35226 c 0,-7.30581 -5.92253,-13.22833 -13.22836,-13.22833 -7.30581,0 -13.22833,5.92252 -13.22833,13.22833 0,7.30582 5.92252,13.22834 13.22833,13.22834 7.30583,0 13.22836,-5.92252 13.22836,-13.22834 z"
       id="path12945" />
    <path
       style="fill:#000000;fill-opacity:1;stroke:none;stroke-width:1"
       d="m 178.433,360.87831 c 0,-7.30582 -5.92252,-13.22834 -13.22835,-13.22834 -7.30581,0 -13.22834,5.92252 -13.22834,13.22834 0,7.30581 5.92252,13.22833 13.22834,13.22833 7.30583,0 13.22835,-5.92252 13.22835,-13.22833 z"
       id="path12943" />
    <path
       style="fill:#000000;fill-opacity:1;stroke:none;stroke-width:1"
       d="m 234.65584,570.70477 c -0.004,-7.30394 -5.92442,-13.22353 -13.22834,-13.22353 -7.30394,0 -13.2257,5.91959 -13.22836,13.22353 0.004,7.30394 5.92442,13.22352 13.22836,13.22352 7.30392,0 13.22567,-5.91958 13.22834,-13.22352 z"
       id="path12941" />
    <path
       style="fill:#000000;fill-opacity:1;stroke:none;stroke-width:1"
       d="m 170.32604,682.34463 c -0.004,-7.30394 -5.92441,-13.22352 -13.22834,-13.22352 -7.30394,0 -13.22569,5.91958 -13.22835,13.22352 0.004,7.30394 5.92441,13.22353 13.22835,13.22353 7.30393,0 13.22568,-5.91959 13.22834,-13.22353 z"
       id="path12939" />
    <path
       style="fill:#000000;fill-opacity:1;stroke:none;stroke-width:1"
       d="m 237.25693,762.10977 c 0,-7.30581 -5.92253,-13.22834 -13.22834,-13.22834 -7.30583,0 -13.22835,5.92253 -13.22835,13.22834 0,7.30581 5.92252,13.22834 13.22835,13.22834 7.30581,0 13.22834,-5.92253 13.22834,-13.22834 z"
       id="path12937" />
    <path
       style="fill:#000000;fill-opacity:1;stroke:none;stroke-width:1"
       d="m 359.50849,684.10872 c 0,-7.30581 -5.92253,-13.22834 -13.22835,-13.22834 -7.30582,0 -13.22834,5.92253 -13.22834,13.22834 0,7.30581 5.92252,13.22834 13.22834,13.22834 7.30582,0 13.22835,-5.92253 13.22835,-13.22834 z"
       id="path12406" />
  </g>
</svg>
