<?xml version="1.0" encoding="UTF-8" standalone="no"?>
<svg
   viewBox="0 0 518.36553 529.33821"
   width="518.36554"
   height="529.3382"
   version="1.1"
   id="svg566"
   sodipodi:docname="nice_plate_fixed.svg"
   inkscape:version="1.2.1 (9c6d41e, 2022-07-14)"
   xmlns:inkscape="http://www.inkscape.org/namespaces/inkscape"
   xmlns:sodipodi="http://sodipodi.sourceforge.net/DTD/sodipodi-0.dtd"
   xmlns="http://www.w3.org/2000/svg"
   xmlns:svg="http://www.w3.org/2000/svg">
  <sodipodi:namedview
     id="namedview568"
     pagecolor="#ffffff"
     bordercolor="#000000"
     borderopacity="0.25"
     inkscape:showpageshadow="2"
     inkscape:pageopacity="0.0"
     inkscape:pagecheckerboard="0"
     inkscape:deskcolor="#d1d1d1"
     showgrid="false"
     inkscape:zoom="0.65857302"
     inkscape:cx="381.88628"
     inkscape:cy="378.84941"
     inkscape:window-width="1390"
     inkscape:window-height="1027"
     inkscape:window-x="0"
     inkscape:window-y="25"
     inkscape:window-maximized="0"
     inkscape:current-layer="g564" />
  <desc
     id="desc2">nice_plate.dxf - scale = 1.000000, origin = (0.000000, 0.000000), method = manual</desc>
  <defs
     id="defs14">
    <marker
       id="DistanceX"
       orient="auto"
       refX="0"
       refY="0"
       style="overflow:visible">
      <path
         d="M 3,-3 -3,3 M 0,-5 V 5"
         style="stroke:#000000;stroke-width:0.5"
         id="path4" />
    </marker>
    <pattern
       id="Hatch"
       patternUnits="userSpaceOnUse"
       width="8"
       height="8"
       x="0"
       y="0">
      <path
         d="M8 4 l-4,4"
         stroke="#000000"
         stroke-width="0.25"
         linecap="square"
         id="path7" />
      <path
         d="M6 2 l-4,4"
         stroke="#000000"
         stroke-width="0.25"
         linecap="square"
         id="path9" />
      <path
         d="M4 0 l-4,4"
         stroke="#000000"
         stroke-width="0.25"
         linecap="square"
         id="path11" />
    </pattern>
  </defs>
  <g
     inkscape:groupmode="layer"
     inkscape:label="0"
     id="g564"
     transform="translate(-105.07269,-333.03827)">
    <path
       id="path518"
       style="display:inline;fill:none;stroke:#000000"
       d="m 379.54914,333.53871 c -7.04922,-0.0536 -13.40102,4.84359 -14.92383,12.00781 l -1.14648,5.39258 -63.31836,-11.16406 c -8.24331,-1.45347 -16.10298,4.04973 -17.55664,12.29297 l -1.51563,8.58789 -118.85546,-10.39844 c -5.1507,-0.45068 -9.95374,2.64097 -11.67774,7.51563 l 114.47852,10.01367 -0.49415,5.64844 -114.83788,-10.04688 -4.44727,50.82812 112.95508,9.88477 -0.49414,5.64261 -128.91797,-11.27542 c -8.33852,-0.7293 -15.69043,5.43827 -16.41992,13.77542 l -6.74609,77.1113 c -0.7295,8.34 5.43885,15.6914 13.77734,16.4199 l 56.43945,4.9375 -4.9375,56.4414 c -0.72949,8.3382 5.43886,15.6878 13.77735,16.418 l 77.10937,6.7441 c 8.3384,0.7319 15.69036,-5.4361 16.41992,-13.7734 l 0.4668,-5.3398 54.06054,9.5312 c 8.24322,1.4547 16.10483,-4.0485 17.5586,-12.291 l 0.75976,-4.3203 33.88867,7.2011 -0.22656,0.8418 c -2.16618,8.087 2.6318,16.3979 10.7168,18.5665 l 49.73437,13.3203 2.24219,27.832 c -1.80568,1.4543 -3.25466,3.3017 -4.23437,5.4004 l -47.88672,102.6973 c -3.53773,7.5848 -0.25593,16.6025 7.33008,20.1406 l 66.11523,30.8301 56.4668,47.3808 c 6.4122,5.3802 15.97137,4.5438 21.35156,-1.8691 l 72.83398,-86.8008 c 5.38025,-6.4117 4.54472,-15.9718 -1.86718,-21.3516 l -59.29493,-49.7558 c -0.75551,-0.6321 -1.5715,-1.1927 -2.43554,-1.666 l -4.32617,-35.918 c 0.78894,-1.2681 1.38695,-2.6449 1.77343,-4.0879 l 18.58594,-69.3613 1.44727,-5.4004 0.002,-0.01 18.58594,-69.3594 18.58593,-69.3613 c 2.16627,-8.0867 -2.63366,-16.3976 -10.71875,-18.5664 l -54.7246,-14.66211 0.96874,-3.61328 c 2.16619,-8.08506 -2.63178,-16.39606 -10.71679,-18.5625 l -65.78711,-17.62695 0.51562,-2.41993 c 1.74019,-8.18741 -3.48629,-16.23612 -11.67382,-17.97656 l -75.7149,-16.09159 c -1.02344,-0.21755 -2.04375,-0.32634 -3.05078,-0.33399 z m 0.67188,8.78711 c 4.17475,0 7.55859,3.38385 7.55859,7.55859 0,4.17475 -3.38384,7.5586 -7.55859,7.5586 -4.17475,0 -7.5586,-3.38385 -7.5586,-7.5586 0,-4.17474 3.38385,-7.55859 7.5586,-7.55859 z m 8.66015,20.89453 51.75781,11.00195 -11.00195,51.76172 -51.75586,-11.00586 z m -81.41992,5.66602 52.11133,9.1875 -9.18945,52.10935 -52.10938,-9.18748 z m 157.76758,28.70507 51.11133,13.69532 -13.69532,51.10746 -51.10937,-13.6914 z m -337,31.28908 c 4.17475,0 7.56055,3.3857 7.56055,7.5605 0,4.1748 -3.3858,7.5586 -7.56055,7.5586 -4.17475,0 -7.55859,-3.3838 -7.55859,-7.5586 0,-4.1748 3.38384,-7.5605 7.55859,-7.5605 z m 466.35547,3.7363 c 4.17475,0 7.55859,3.3838 7.55859,7.5586 0,4.1748 -3.38384,7.5586 -7.55859,7.5586 -4.17475,0 -7.5586,-3.3838 -7.5586,-7.5586 0,-4.1748 3.38385,-7.5586 7.5586,-7.5586 z m -220.63282,0.8457 51.75782,11 -11.00196,51.7617 -51.75781,-11 z m 155.75196,0.9707 51.10937,13.6895 -13.69531,51.1113 -51.10937,-13.6914 z m -234.71094,5.1699 52.10937,9.1895 -9.1875,52.1113 -52.11132,-9.1914 8.58593,-48.6816 c 0.0803,-0.3571 0.14372,-0.7164 0.18946,-1.0781 z m -18.32227,2.2657 c 4.17476,0 7.5586,3.3838 7.5586,7.5586 0,4.1748 -3.38384,7.5586 -7.5586,7.5586 -4.17474,0 -7.55859,-3.3838 -7.55859,-7.5586 0,-4.1748 3.38385,-7.5586 7.55859,-7.5586 z m -138.06249,4.9648 52.71094,4.6094 -4.61133,52.7109 -52.71094,-4.6113 z m 298.08789,1.1016 c 4.17475,0 7.55859,3.3838 7.55859,7.5586 0,4.1748 -3.38384,7.5586 -7.55859,7.5586 -4.17475,0 -7.56055,-3.3838 -7.56055,-7.5586 0,-4.1748 3.3858,-7.5586 7.56055,-7.5586 z m -226.55078,5.1582 52.71093,4.6094 -4.60937,52.7109 -52.71289,-4.6113 z m 236.49804,13.8594 51.11133,13.7011 -13.69531,51.1094 -51.10938,-13.6992 z m -87.62305,36.75 51.75782,11 -11,51.7597 -51.75782,-11 z m 152.09766,0.0898 51.10937,13.7012 -13.69531,51.1093 -51.10937,-13.6992 z m -228.5957,6.5312 52.10937,9.1895 -9.1875,52.1094 -52.10937,-9.1895 z m -78.63477,14.3086 52.71094,4.6114 -4.61133,52.709 -52.71289,-4.6094 z m 224.16992,11.6914 51.11133,13.6895 -13.69531,51.1094 -51.10938,-13.6895 z m 64.47461,36.8399 51.10938,13.6894 -13.69531,51.1094 -51.10938,-13.6894 z m -157.96679,3.9277 c 4.17475,0 7.55859,3.3838 7.55859,7.5586 0,4.1748 -3.38384,7.5586 -7.55859,7.5586 -4.17475,0 -7.56055,-3.3838 -7.56055,-7.5586 0,-4.1748 3.3858,-7.5586 7.56055,-7.5586 z m -147.4707,2.9121 c 4.17474,0 7.55859,3.3858 7.55859,7.5606 0,4.1748 -3.38385,7.5586 -7.55859,7.5586 -4.17475,0 -7.56055,-3.3838 -7.56055,-7.5586 0,-4.1748 3.3858,-7.5606 7.56055,-7.5606 z m 351.26757,62.4395 c 4.17475,0 7.55859,3.3838 7.55859,7.5586 0,4.1748 -3.38384,7.5605 -7.55859,7.5605 -4.17475,0 -7.55859,-3.3857 -7.55859,-7.5605 0,-4.1748 3.38384,-7.5586 7.55859,-7.5586 z m -83.10547,53.791 47.95508,22.3691 -22.36133,47.9493 -47.95703,-22.3594 z m 83.20313,44.9395 40.53515,34.0097 -34.01367,40.5293 -40.5332,-34.0097 z m 64.23242,12.9121 c 4.17367,0 7.55659,3.3829 7.55859,7.5566 -0.002,4.1737 -3.38492,7.5566 -7.55859,7.5566 -4.17367,0 -7.55855,-3.3829 -7.56055,-7.5566 0.002,-4.1737 3.38688,-7.5566 7.56055,-7.5566 z m -189.18359,1.7617 c 4.17474,0 7.56054,3.3838 7.56054,7.5586 0,4.1748 -3.3858,7.5586 -7.56054,7.5586 -4.17476,0 -7.5586,-3.3838 -7.5586,-7.5586 0,-4.1748 3.38384,-7.5586 7.5586,-7.5586 z m 122.25195,78 c 4.17475,0 7.55859,3.3857 7.55859,7.5605 0,4.1748 -3.38384,7.5586 -7.55859,7.5586 -4.17475,0 -7.5586,-3.3838 -7.5586,-7.5586 0,-4.1748 3.38385,-7.5605 7.5586,-7.5605 z" />
  </g>
</svg>
