<?xml version="1.0" encoding="UTF-8" standalone="no"?>
<svg
   viewBox="0 0 793.7007874015749 1122.5196850393702"
   width="793.7007874015749"
   height="1122.5196850393702"
   version="1.1"
   id="svg1252"
   sodipodi:docname="nice plate v3 fixed.svg"
   inkscape:version="1.2.1 (9c6d41e, 2022-07-14)"
   xmlns:inkscape="http://www.inkscape.org/namespaces/inkscape"
   xmlns:sodipodi="http://sodipodi.sourceforge.net/DTD/sodipodi-0.dtd"
   xmlns="http://www.w3.org/2000/svg"
   xmlns:svg="http://www.w3.org/2000/svg">
  <sodipodi:namedview
     id="namedview1254"
     pagecolor="#ffffff"
     bordercolor="#000000"
     borderopacity="0.25"
     inkscape:showpageshadow="2"
     inkscape:pageopacity="0.0"
     inkscape:pagecheckerboard="0"
     inkscape:deskcolor="#d1d1d1"
     showgrid="false"
     inkscape:zoom="0.5794095"
     inkscape:cx="382.28576"
     inkscape:cy="485.83946"
     inkscape:window-width="1390"
     inkscape:window-height="1027"
     inkscape:window-x="0"
     inkscape:window-y="25"
     inkscape:window-maximized="0"
     inkscape:current-layer="g1250" />
  <desc
     id="desc686">nice_plate(2).dxf - scale = 1.000000, origin = (0.000000, 0.000000), method = manual</desc>
  <defs
     id="defs698">
    <marker
       id="DistanceX"
       orient="auto"
       refX="0.0"
       refY="0.0"
       style="overflow:visible">
      <path
         d="M 3,-3 L -3,3 M 0,-5 L  0,5"
         style="stroke:#000000; stroke-width:0.5"
         id="path688" />
    </marker>
    <pattern
       id="Hatch"
       patternUnits="userSpaceOnUse"
       width="8"
       height="8"
       x="0"
       y="0">
      <path
         d="M8 4 l-4,4"
         stroke="#000000"
         stroke-width="0.25"
         linecap="square"
         id="path691" />
      <path
         d="M6 2 l-4,4"
         stroke="#000000"
         stroke-width="0.25"
         linecap="square"
         id="path693" />
      <path
         d="M4 0 l-4,4"
         stroke="#000000"
         stroke-width="0.25"
         linecap="square"
         id="path695" />
    </pattern>
  </defs>
  <g
     inkscape:groupmode="layer"
     inkscape:label="0"
     id="g1250">
    <path
       id="path1188"
       style="display:inline;fill:none;stroke:#000000"
       d="M 412.14453 342.88281 C 405.09531 342.82925 398.74155 347.72641 397.21875 354.89062 L 396.07422 360.2832 L 332.75586 349.11914 C 324.51255 347.66567 316.65092 353.16886 315.19727 361.41211 L 313.68359 370 L 194.82812 359.60156 C 188.58984 359.05573 183.08875 363.66998 182.54297 369.9082 L 177.35547 429.20898 L 161.39062 427.8125 C 153.0521 427.08321 145.70217 433.25271 144.97266 441.58984 L 138.22656 518.69922 C 137.49703 527.03921 143.66539 534.39067 152.00391 535.11914 L 208.44336 540.05859 L 203.50391 596.49805 C 202.77439 604.83629 208.94275 612.18775 217.28125 612.91797 L 294.39258 619.66016 C 302.73099 620.39213 310.08295 614.22402 310.8125 605.88672 L 311.2793 600.54688 L 365.33984 610.07812 C 373.58308 611.53282 381.44274 606.02959 382.89648 597.78711 L 383.6582 593.4668 L 417.54492 600.66797 L 417.32031 601.50977 C 415.15411 609.5967 419.9521 617.9076 428.03711 620.07617 L 477.77148 633.39844 L 480.01172 661.22852 C 478.20604 662.68278 476.759 664.53031 475.7793 666.62891 L 427.89258 769.32617 C 424.35486 776.91114 427.63666 785.92871 435.22266 789.4668 L 501.33594 820.29688 L 557.80273 867.67773 C 564.21493 873.05793 573.77607 872.22147 579.15625 865.80859 L 651.99023 779.00781 C 657.37049 772.5962 656.53497 763.03601 650.12305 757.65625 L 590.82617 707.90039 C 590.07065 707.26832 589.25466 706.70966 588.39062 706.23633 L 584.06641 670.31641 C 584.85535 669.04828 585.45336 667.67149 585.83984 666.22852 L 604.42383 596.86719 L 604.42578 596.86914 L 605.87305 591.4668 L 605.87305 591.45703 L 624.45898 522.09766 L 643.04492 452.73633 C 645.21114 444.64966 640.41317 436.33875 632.32812 434.16992 L 577.60352 419.50781 L 578.57227 415.89453 C 580.73844 407.80947 575.94048 399.49848 567.85547 397.33203 L 502.06836 379.70508 L 502.58203 377.28516 C 504.32222 369.09774 499.09573 361.05099 490.9082 359.31055 L 415.19531 343.2168 C 414.17188 342.99926 413.15156 342.89046 412.14453 342.88281 z M 412.81641 351.66992 C 416.99116 351.66992 420.375 355.05377 420.375 359.22852 C 420.375 363.40326 416.99116 366.78906 412.81641 366.78906 C 408.64166 366.78906 405.25586 363.40326 405.25586 359.22852 C 405.25586 355.05377 408.64166 351.66992 412.81641 351.66992 z M 192.20312 367.9082 L 308.92383 378.11914 L 308.42773 383.76758 L 191.70898 373.55664 L 192.20312 367.9082 z M 421.83984 373.125 L 472.67383 383.93164 L 461.86914 434.76758 L 411.03516 423.95898 L 421.83984 373.125 z M 340.43945 378.77734 L 391.61914 387.80078 L 382.59375 438.97852 L 331.41602 429.95703 L 340.43945 378.77734 z M 498.1582 407.51562 L 548.35742 420.96484 L 534.90625 471.16797 L 484.70703 457.70703 L 498.1582 407.51562 z M 187.26172 424.38477 L 303.98242 434.59766 L 303.48828 440.24805 L 186.76758 430.0332 L 187.26172 424.38477 z M 160.82422 438.22656 C 164.99897 438.22656 168.38281 441.61041 168.38281 445.78516 C 168.38281 449.9599 164.99897 453.34375 160.82422 453.34375 C 156.64947 453.34375 153.26562 449.9599 153.26562 445.78516 C 153.26562 441.61041 156.64947 438.22656 160.82422 438.22656 z M 627.17969 441.96094 C 631.35444 441.96094 634.73828 445.34479 634.73828 449.51953 C 634.73828 453.69428 631.35444 457.08008 627.17969 457.08008 C 623.00494 457.08008 619.61914 453.69428 619.61914 449.51953 C 619.61914 445.34479 623.00494 441.96094 627.17969 441.96094 z M 406.91016 443.36719 L 457.74219 454.16797 L 446.9375 505.00781 L 396.10547 494.19727 L 406.91016 443.36719 z M 562.63086 444.35742 L 612.83008 457.80859 L 599.37891 508.00781 L 549.18164 494.54688 L 562.63086 444.35742 z M 327.9707 449.49805 L 379.15039 458.51758 L 370.125 509.69727 L 318.94531 500.67773 L 327.9707 449.49805 z M 309.26562 451.21289 C 313.44038 451.21289 316.82422 454.59674 316.82422 458.77148 C 316.82422 462.94623 313.44038 466.33008 309.26562 466.33008 C 305.09088 466.33008 301.70703 462.94623 301.70703 458.77148 C 301.70703 454.59674 305.09088 451.21289 309.26562 451.21289 z M 171.63086 456.6875 L 223.40234 461.2168 L 218.87305 512.98828 L 167.10156 508.45703 L 171.63086 456.6875 z M 469.28906 457.2793 C 473.46382 457.2793 476.84766 460.66314 476.84766 464.83789 C 476.84766 469.01264 473.46382 472.39648 469.28906 472.39648 C 465.11432 472.39648 461.73047 469.01264 461.73047 464.83789 C 461.73047 460.66314 465.11432 457.2793 469.28906 457.2793 z M 243.16992 462.94727 L 294.94141 467.47852 L 290.41016 519.24805 L 238.64062 514.7168 L 243.16992 462.94727 z M 479.57227 476.87695 L 529.77148 490.32812 L 516.32031 540.52734 L 466.12109 527.07812 L 479.57227 476.87695 z M 391.98047 513.60742 L 442.8125 524.41797 L 432.00781 575.24805 L 381.17383 564.4375 L 391.98047 513.60742 z M 544.04492 513.7168 L 594.24414 527.16797 L 580.79297 577.36719 L 530.59375 563.91797 L 544.04492 513.7168 z M 315.5 520.2168 L 366.67969 529.23828 L 357.6543 580.41797 L 306.47461 571.39844 L 315.5 520.2168 z M 236.91016 534.48828 L 288.68164 539.01758 L 284.15234 590.78711 L 232.38086 586.25781 L 236.91016 534.48828 z M 460.98633 546.24805 L 511.18359 559.69727 L 497.73438 609.88867 L 447.53516 596.4375 L 460.98633 546.24805 z M 525.45898 583.08789 L 575.6582 596.53711 L 562.20703 646.72852 L 512.00781 633.27734 L 525.45898 583.08789 z M 367.1582 586.43555 C 371.33296 586.43555 374.71875 589.81939 374.71875 593.99414 C 374.71875 598.16889 371.33296 601.55273 367.1582 601.55273 C 362.98346 601.55273 359.59961 598.16889 359.59961 593.99414 C 359.59961 589.81939 362.98346 586.43555 367.1582 586.43555 z M 219.6875 589.34766 C 223.86226 589.34766 227.24805 592.73346 227.24805 596.9082 C 227.24805 601.08295 223.86226 604.4668 219.6875 604.4668 C 215.51275 604.4668 212.12891 601.08295 212.12891 596.9082 C 212.12891 592.73346 215.51275 589.34766 219.6875 589.34766 z M 570.95703 651.79102 C 575.1307 651.79102 578.51363 655.17398 578.51562 659.34766 C 578.51411 663.52133 575.1307 666.90234 570.95703 666.90234 C 566.78336 666.90234 563.39848 663.52133 563.39648 659.34766 C 563.398 655.17398 566.78336 651.79102 570.95703 651.79102 z M 488.08008 706.20703 L 535.17773 728.16797 L 513.21484 775.26758 L 466.11719 753.30859 L 488.08008 706.20703 z M 571.11328 751.17773 L 610.92188 784.58789 L 577.51758 824.39844 L 537.70703 790.98828 L 571.11328 751.17773 z M 635.28516 763.42969 C 639.45882 763.42969 642.8437 766.81265 642.8457 770.98633 C 642.84418 775.16 639.45882 778.54297 635.28516 778.54297 C 631.11148 778.54297 627.72856 775.16 627.72656 770.98633 C 627.72808 766.81265 631.11148 763.42969 635.28516 763.42969 z M 446.10352 765.19141 C 450.27826 765.19141 453.66211 768.57525 453.66211 772.75 C 453.66211 776.92475 450.27826 780.31055 446.10352 780.31055 C 441.92876 780.31055 438.54492 776.92475 438.54492 772.75 C 438.54492 768.57525 441.92876 765.19141 446.10352 765.19141 z M 568.35547 843.19336 C 572.53022 843.19336 575.91406 846.57721 575.91406 850.75195 C 575.91406 854.9267 572.53022 858.31055 568.35547 858.31055 C 564.18072 858.31055 560.79688 854.9267 560.79688 850.75195 C 560.79687 846.57721 564.18072 843.19336 568.35547 843.19336 z " />
  </g>
</svg>
