<?xml version="1.0" encoding="UTF-8" standalone="no"?>
<svg
   viewBox="0 0 793.7007874015749 1122.5196850393702"
   width="793.7007874015749"
   height="1122.5196850393702"
   version="1.1"
   id="svg702"
   sodipodi:docname="nice_plate_v4_combo.svg"
   inkscape:version="1.2.1 (9c6d41e, 2022-07-14)"
   xmlns:inkscape="http://www.inkscape.org/namespaces/inkscape"
   xmlns:sodipodi="http://sodipodi.sourceforge.net/DTD/sodipodi-0.dtd"
   xmlns="http://www.w3.org/2000/svg"
   xmlns:svg="http://www.w3.org/2000/svg">
  <sodipodi:namedview
     id="namedview704"
     pagecolor="#ffffff"
     bordercolor="#000000"
     borderopacity="0.25"
     inkscape:showpageshadow="2"
     inkscape:pageopacity="0.0"
     inkscape:pagecheckerboard="0"
     inkscape:deskcolor="#d1d1d1"
     showgrid="false"
     inkscape:zoom="0.6229051"
     inkscape:cx="113.17936"
     inkscape:cy="267.29593"
     inkscape:window-width="1390"
     inkscape:window-height="1027"
     inkscape:window-x="0"
     inkscape:window-y="25"
     inkscape:window-maximized="0"
     inkscape:current-layer="g700" />
  <desc
     id="desc132">nice_plate(4).dxf - scale = 1.000000, origin = (0.000000, 0.000000), method = manual</desc>
  <defs
     id="defs144">
    <marker
       id="DistanceX"
       orient="auto"
       refX="0.0"
       refY="0.0"
       style="overflow:visible">
      <path
         d="M 3,-3 L -3,3 M 0,-5 L  0,5"
         style="stroke:#000000; stroke-width:0.5"
         id="path134" />
    </marker>
    <pattern
       id="Hatch"
       patternUnits="userSpaceOnUse"
       width="8"
       height="8"
       x="0"
       y="0">
      <path
         d="M8 4 l-4,4"
         stroke="#000000"
         stroke-width="0.25"
         linecap="square"
         id="path137" />
      <path
         d="M6 2 l-4,4"
         stroke="#000000"
         stroke-width="0.25"
         linecap="square"
         id="path139" />
      <path
         d="M4 0 l-4,4"
         stroke="#000000"
         stroke-width="0.25"
         linecap="square"
         id="path141" />
    </pattern>
  </defs>
  <g
     inkscape:groupmode="layer"
     inkscape:label="0"
     id="g700">
    <path
       style="fill:none;stroke:#000000"
       d="m 30.546114,101.22461 c -0.002,-4.173677 -3.38538,-7.556297 -7.55906,-7.556297 -4.17367,0 -7.55753,3.38262 -7.55905,7.556297 0.002,4.17368 3.38538,7.5563 7.55905,7.5563 4.17368,0 7.55754,-3.38262 7.55906,-7.5563 z"
       id="path2270" />
    <path
       style="fill:none;stroke:#000000"
       d="m 89.190864,254.85114 c 0,-4.17475 -3.3843,-7.55905 -7.55906,-7.55905 -4.17475,0 -7.55905,3.3843 -7.55905,7.55905 0,4.17475 3.3843,7.55905 7.55905,7.55905 4.17476,0 7.55906,-3.3843 7.55906,-7.55905 z"
       id="path2268" />
    <path
       style="fill:none;stroke:#000000"
       d="m 200.53642,22.405871 c 0,-4.174756 -3.38431,-7.559056 -7.55906,-7.559056 -4.17475,0 -7.55906,3.3843 -7.55906,7.559056 0,4.174756 3.38431,7.559056 7.55906,7.559056 4.17475,0 7.55906,-3.3843 7.55906,-7.559056 z"
       id="path2266" />
    <path
       style="fill:none;stroke:#000000"
       d="m 175.57621,166.02992 c 0,-4.17475 -3.3843,-7.55905 -7.55906,-7.55905 -4.17475,0 -7.55905,3.3843 -7.55905,7.55905 0,4.17475 3.3843,7.55905 7.55905,7.55905 4.17476,0 7.55906,-3.3843 7.55906,-7.55905 z"
       id="path2264" />
    <path
       style="fill:none;stroke:#000000"
       d="m 324.47137,174.38962 c 0,-4.17475 -3.3843,-7.55905 -7.55905,-7.55905 -4.17476,0 -7.55906,3.3843 -7.55906,7.55905 0,4.17475 3.3843,7.55905 7.55906,7.55905 4.17475,0 7.55905,-3.3843 7.55905,-7.55905 z"
       id="path2262" />
    <path
       style="fill:none;stroke:#000000"
       d="m 356.88724,32.246719 c 0,-4.174754 -3.3843,-7.559052 -7.55906,-7.559052 -4.17475,0 -7.55905,3.384298 -7.55905,7.559052 0,4.174754 3.3843,7.559052 7.55905,7.559052 4.17476,0 7.55906,-3.384298 7.55906,-7.559052 z"
       id="path2260" />
    <path
       style="fill:none;stroke:#000000"
       d="m 237.34192,252.02727 c 0,-4.17475 -3.3843,-7.55905 -7.55906,-7.55905 -4.17475,0 -7.55905,3.3843 -7.55905,7.55905 0,4.17475 3.3843,7.55905 7.55905,7.55905 4.17476,0 7.55906,-3.3843 7.55906,-7.55905 z"
       id="path2258" />
    <path
       style="fill:none;stroke:#000000"
       d="m 497.51045,106.88348 c 0,-4.17475 -3.3843,-7.559047 -7.55906,-7.559047 -4.17475,0 -7.55905,3.384297 -7.55905,7.559047 0,4.17475 3.3843,7.55905 7.55905,7.55905 4.17476,0 7.55906,-3.3843 7.55906,-7.55905 z"
       id="path2256" />
    <path
       style="fill:none;stroke:#000000"
       d="m 440.6371,319.13769 c -0.002,-4.17368 -3.38538,-7.5563 -7.55906,-7.5563 -4.17367,0 -7.55753,3.38262 -7.55905,7.5563 0.002,4.17368 3.38538,7.5563 7.55905,7.5563 4.17368,0 7.55754,-3.38262 7.55906,-7.5563 z"
       id="path2254" />
    <path
       style="fill:none;stroke:#000000"
       d="m 509.36673,426.9629 c 0,-4.17476 -3.38431,-7.55906 -7.55906,-7.55906 -4.17475,0 -7.55906,3.3843 -7.55906,7.55906 0,4.17476 3.38431,7.55906 7.55906,7.55906 4.17475,0 7.55906,-3.3843 7.55906,-7.55906 z"
       id="path2252" />
    <path
       style="fill:none;stroke:#000000"
       d="m 437.35832,512.77918 c 0,-4.17475 -3.3843,-7.55905 -7.55905,-7.55905 -4.17476,0 -7.55906,3.3843 -7.55906,7.55905 0,4.17475 3.3843,7.55905 7.55906,7.55905 4.17475,0 7.55905,-3.3843 7.55905,-7.55905 z"
       id="path2250" />
    <path
       style="fill:none;stroke:#000000"
       d="m 312.37354,433.03688 c 0,-4.17475 -3.3843,-7.55905 -7.55906,-7.55905 -4.17475,0 -7.55905,3.3843 -7.55905,7.55905 0,4.17475 3.3843,7.55905 7.55905,7.55905 4.17476,0 7.55906,-3.3843 7.55906,-7.55905 z"
       id="path674" />
    <path
       id="path748"
       style="fill:none;stroke:#000000"
       d="m 318.04284,433.03689 c -0.003,-7.30381 -5.92454,-13.2232 -13.22835,-13.2232 -7.3038,0 -13.2255,5.91939 -13.22834,13.2232 0.003,7.30381 5.92454,13.2232 13.22834,13.2232 7.30381,0 13.22551,-5.91939 13.22835,-13.2232 z m 124.98478,79.7423 c -0.003,-7.30381 -5.92454,-13.2232 -13.22835,-13.2232 -7.3038,0 -13.2255,5.91939 -13.22834,13.2232 0.003,7.30381 5.92454,13.2232 13.22834,13.2232 7.30381,0 13.22551,-5.91939 13.22835,-13.2232 z m 72.00841,-85.81628 c -0.004,-7.30298 -5.92537,-13.22107 -13.22834,-13.22107 -7.30298,0 -13.22433,5.91809 -13.22835,13.22107 0.003,7.30381 5.92454,13.2232 13.22835,13.2232 7.3038,0 13.2255,-5.91939 13.22834,-13.2232 z M 446.30641,319.1377 c 0,-7.30582 -5.92253,-13.22834 -13.22835,-13.22834 -7.30582,0 -13.22835,5.92252 -13.22835,13.22834 0,7.30582 5.92253,13.22834 13.22835,13.22834 7.30582,0 13.22835,-5.92252 13.22835,-13.22834 z m 56.87334,-212.25422 c -0.003,-7.303809 -5.92454,-13.223199 -13.22835,-13.223199 -7.3038,0 -13.2255,5.91939 -13.22834,13.223199 0.003,7.30381 5.92454,13.2232 13.22834,13.2232 7.30381,0 13.22551,-5.91939 13.22835,-13.2232 z m -260.16853,145.1438 c -0.003,-7.30381 -5.92454,-13.2232 -13.22835,-13.2232 -7.3038,0 -13.2255,5.91939 -13.22834,13.2232 0.004,7.30298 5.92537,13.22107 13.22834,13.22107 7.30298,0 13.22433,-5.91809 13.22835,-13.22107 z M 362.55654,32.246722 c -0.003,-7.30381 -5.92454,-13.223198 -13.22834,-13.223198 -7.30381,0 -13.22551,5.919388 -13.22835,13.223198 0.003,7.30381 5.92454,13.2232 13.22835,13.2232 7.3038,0 13.2255,-5.91939 13.22834,-13.2232 z M 330.14068,174.38962 c 0,-7.30582 -5.92253,-13.22834 -13.22835,-13.22834 -7.30582,0 -13.22835,5.92252 -13.22835,13.22834 0,7.30582 5.92253,13.22834 13.22835,13.22834 7.30582,0 13.22835,-5.92252 13.22835,-13.22834 z m -148.89516,-8.35969 c 0,-7.30582 -5.92253,-13.22834 -13.22835,-13.22834 -7.30582,0 -13.22835,5.92252 -13.22835,13.22834 0,7.30582 5.92253,13.22834 13.22835,13.22834 7.30582,0 13.22835,-5.92252 13.22835,-13.22834 z m 24.9602,-143.624058 c -0.004,-7.302981 -5.92537,-13.2210701 -13.22835,-13.2210701 -7.30297,0 -13.22432,5.9180891 -13.22834,13.2210701 0.003,7.30381 5.92454,13.22319 13.22834,13.22319 7.30381,0 13.22551,-5.91938 13.22835,-13.22319 z M 94.860161,254.85114 c -0.004,-7.30298 -5.92537,-13.22107 -13.22835,-13.22107 -7.30297,0 -13.22432,5.91809 -13.22834,13.22107 0.003,7.30381 5.92454,13.2232 13.22834,13.2232 7.30381,0 13.22551,-5.91939 13.22835,-13.2232 z M 36.215411,101.22461 c -0.004,-7.302979 -5.92537,-13.221069 -13.22834,-13.221069 -7.30298,0 -13.2243303,5.91809 -13.2283503,13.221069 0.004,7.30298 5.9253703,13.22107 13.2283503,13.22107 7.30297,0 13.22432,-5.91809 13.22834,-13.22107 z m 128.311789,11.42022 2.092,-23.912999 -116.719399,-10.212 -2.09173,23.904999 z m 4.53,-51.774998 2.091,-23.909 -116.719039,-10.212 -2.09174,23.909 z m 264.388,347.924998 -33.405,39.81 39.81,33.41 33.405,-39.81 z m -83.033,-44.97 -21.963,47.1 47.099,21.96 21.963,-47.1 z m 111.299,-198.2 13.451,-50.2 -50.198,-13.45 -13.45,50.19 z m -5.135,19.16 -50.198,-13.45 -13.451,50.2 50.198,13.45 z m -82.235,106.11 50.198,13.45 13.451,-50.19 -50.198,-13.45 z m 22.897,-162.11 13.451,-50.201999 -50.198,-13.451003 -13.451,50.193002 z m -18.586,69.36 13.451,-50.2 -50.198,-13.45 -13.451,50.2 z m -18.586,69.36 13.451,-50.19 -50.198,-13.45 -13.451,50.19 z m -75.893,-236.761998 -10.805,50.832999 50.833,10.809 10.805,-50.836999 z m -14.931,70.241998 -10.804,50.83 50.832,10.81 10.805,-50.84 z m -14.93,70.24 -10.805,50.83 50.833,10.81 10.805,-50.83 z m -51.54,-134.829998 -9.024,51.178999 51.179,9.021 9.024,-51.175999 z m -12.469,70.719998 -9.025,51.18 51.179,9.02 9.025,-51.18 z m 29.684,130.92 9.025,-51.18 -51.179,-9.02 -9.025,51.18 z m -67.244,-61.17 4.53,-51.77 -51.7712,-4.53 -4.5293,51.77 z m -6.2585,71.54 4.5293,-51.77 -51.770699,-4.53 -4.5294,51.77 z m -65.279099,-77.8 4.5294,-51.77 -51.7708,-4.53 -4.5293,51.77 z m 91.938569,92.89878 0.46703,-5.33878 54.06104,9.53122 c 8.24324,1.45471 16.10398,-4.04944 17.55772,-12.29193 l 0.76124,-4.31929 33.887,7.2 -0.22578,0.84178 c -2.1662,8.08694 2.6319,16.39748 10.71692,18.56605 l 49.73486,13.32217 2.24077,27.83112 c -1.80567,1.45428 -3.25381,3.30213 -4.23352,5.40074 l -47.88649,102.69697 c -3.53772,7.58498 -0.25563,16.60244 7.33037,20.14054 l 66.11387,30.83063 56.46712,47.37982 c 6.4122,5.38021 15.97187,4.54385 21.35206,-1.86903 l 72.83471,-86.80034 c 5.38027,-6.41162 4.5439,-15.9713 -1.86804,-21.35106 l -59.29573,-49.7574 c -0.75552,-0.63207 -1.57128,-1.19086 -2.43532,-1.6642 l -4.32457,-35.9187 c 0.78894,-1.26813 1.38612,-2.64491 1.7726,-4.08788 l 18.58517,-69.36121 10e-5,2.8e-4 3.2e-4,5e-4 1.44758,-5.40078 0.001,-0.01 18.586,-69.36 18.5858,-69.36152 c 2.16622,-8.08669 -2.63187,-16.397229 -10.71692,-18.566059 l -54.72488,-14.66142 0.96877,-3.61391 c 2.16619,-8.085073 -2.6319,-16.395619 -10.71692,-18.562059 l -65.78685,-17.62803 0.51389,-2.41896 c 1.74019,-8.18742 -3.48628,-16.235463 -11.67382,-17.9759 L 277.52815,0.83379791 c -8.1875,-1.740329 -16.23554,3.48612899 -17.9759,11.67381109 L 258.4062,17.900831 195.08809,6.7358579 C 186.84477,5.2823839 178.98403,10.786532 177.53036,19.029787 L 176.0162,27.616832 57.159961,17.218784 c -6.2383,-0.545828 -11.73788,4.068868 -12.28366,10.307108 l -5.1882,59.300939 -15.9642,-1.39676 c -8.33851,-0.72929 -15.6896103,5.43902 -16.4191203,13.77615 L 0.55849075,176.31631 c -0.72952,8.34 5.43878995,15.6911 13.77731025,16.41958 l 56.4395,4.93894 -4.9378,56.43973 c -0.72952,8.33826 5.43879,15.68936 13.77731,16.41958 l 77.110279,6.74313 c 8.33843,0.73197 15.68953,-5.43634 16.41908,-13.77366 z"
       sodipodi:nodetypes="cscsccscsccscscssssscscsccscsccscscsssssssssscscsccscsccscscccccccccccccccccccccccccccccccccccccccccccccccccccccccccccccccccccccccccccccccccccccccccccccccccccccccccccccccccccccccccccccccccccccccccccccccccccccc" />
  </g>
</svg>
