<?xml version="1.0" encoding="UTF-8" standalone="no"?>
<svg
   viewBox="0 0 944.88185 793.70083"
   width="250mm"
   height="210mm"
   version="1.1"
   id="svg549"
   sodipodi:docname="nice_bottom_unibody.svg"
   inkscape:version="1.2.1 (9c6d41e, 2022-07-14)"
   xmlns:inkscape="http://www.inkscape.org/namespaces/inkscape"
   xmlns:sodipodi="http://sodipodi.sourceforge.net/DTD/sodipodi-0.dtd"
   xmlns="http://www.w3.org/2000/svg"
   xmlns:svg="http://www.w3.org/2000/svg">
  <sodipodi:namedview
     id="namedview551"
     pagecolor="#ffffff"
     bordercolor="#000000"
     borderopacity="0.25"
     inkscape:showpageshadow="2"
     inkscape:pageopacity="0.0"
     inkscape:pagecheckerboard="0"
     inkscape:deskcolor="#d1d1d1"
     showgrid="false"
     inkscape:zoom="0.3441785"
     inkscape:cx="759.78018"
     inkscape:cy="1070.6654"
     inkscape:window-width="1390"
     inkscape:window-height="1027"
     inkscape:window-x="0"
     inkscape:window-y="25"
     inkscape:window-maximized="0"
     inkscape:current-layer="g547"
     inkscape:document-units="mm" />
  <desc
     id="desc271">nice_bottom.dxf - scale = 1.000000, origin = (0.000000, 0.000000), method = manual</desc>
  <defs
     id="defs283">
    <marker
       id="DistanceX"
       orient="auto"
       refX="0"
       refY="0"
       style="overflow:visible">
      <path
         d="M 3,-3 -3,3 M 0,-5 V 5"
         style="stroke:#000000;stroke-width:0.5"
         id="path273" />
    </marker>
    <pattern
       id="Hatch"
       patternUnits="userSpaceOnUse"
       width="8"
       height="8"
       x="0"
       y="0">
      <path
         d="M8 4 l-4,4"
         stroke="#000000"
         stroke-width="0.25"
         linecap="square"
         id="path276" />
      <path
         d="M6 2 l-4,4"
         stroke="#000000"
         stroke-width="0.25"
         linecap="square"
         id="path278" />
      <path
         d="M4 0 l-4,4"
         stroke="#000000"
         stroke-width="0.25"
         linecap="square"
         id="path280" />
    </pattern>
  </defs>
  <g
     inkscape:groupmode="layer"
     inkscape:label="0"
     id="g547">
    <g
       id="g2475"
       transform="translate(72.640262,-726.40811)">
      <g
         id="g863"
         transform="rotate(-20,611.46149,1153.6445)">
        <path
           style="fill:none;stroke:#000000"
           d="m -36.9904,1101.26 56.4395,4.94"
           id="path285" />
        <path
           style="fill:none;stroke:#000000"
           d="M -27.6023,993.955 112.337,1006.2"
           id="path287" />
        <path
           d="m -27.602288,993.95547 a 15.155906,15.155906 0 0 0 -16.419157,13.77733"
           style="fill:none;stroke:#000000"
           id="path289" />
        <path
           style="fill:none;stroke:#000000"
           d="m -44.0214,1007.73 -6.7463,77.11"
           id="path291" />
        <path
           d="m -50.767711,1084.843 a 15.155906,15.155906 0 0 0 13.777309,16.4191"
           style="fill:none;stroke:#000000"
           id="path293" />
        <path
           style="fill:none;stroke:#000000"
           d="m 28.2886,1179.06 77.1104,6.74"
           id="path295" />
        <path
           d="m 105.39879,1185.8049 a 15.155906,15.155906 0 0 0 16.41916,-13.7773"
           style="fill:none;stroke:#000000"
           id="path297" />
        <path
           style="fill:none;stroke:#000000"
           d="m 121.818,1172.03 0.467,-5.34"
           id="path299" />
        <path
           style="fill:none;stroke:#000000"
           d="m 19.4491,1106.2 -4.9378,56.44"
           id="path301" />
        <path
           d="m 14.511307,1162.6395 a 15.155906,15.155906 0 0 0 13.777309,16.4191"
           style="fill:none;stroke:#000000"
           id="path303" />
        <path
           style="fill:none;stroke:#000000"
           d="m 122.285,1166.69 54.061,9.53"
           id="path305" />
        <path
           d="m 176.34607,1176.2224 a 15.155906,15.155906 0 0 0 17.55744,-12.2938"
           style="fill:none;stroke:#000000"
           id="path307" />
        <path
           style="fill:none;stroke:#000000"
           d="m 193.904,1163.93 0.761,-4.32"
           id="path309" />
        <path
           style="fill:none;stroke:#000000"
           d="m 112.337,1006.2 1.397,-7.925"
           id="path311" />
        <path
           style="fill:none;stroke:#000000"
           d="M 207.08,926.426 143.762,915.261"
           id="path313" />
        <path
           d="m 143.76178,915.26105 a 15.155906,15.155906 0 0 0 -17.55745,12.29386"
           style="fill:none;stroke:#000000"
           id="path315" />
        <path
           style="fill:none;stroke:#000000"
           d="m 126.204,927.555 -12.469,70.717"
           id="path317" />
        <path
           style="fill:none;stroke:#000000"
           d="m 113.735,998.273 v -10e-4"
           id="path319" />
        <path
           style="fill:none;stroke:#000000"
           d="m 113.735,998.273 -0.001,0.002"
           id="path321" />
        <path
           style="fill:none;stroke:#000000"
           d="m 194.665,1159.61 33.887,7.2"
           id="path323" />
        <path
           style="fill:none;stroke:#000000"
           d="m 313.075,945.847 0.514,-2.419"
           id="path325" />
        <path
           d="m 313.58878,943.42808 a 15.155906,15.155906 0 0 0 -11.67363,-17.9758"
           style="fill:none;stroke:#000000"
           id="path327" />
        <path
           style="fill:none;stroke:#000000"
           d="M 301.915,925.452 226.202,909.359"
           id="path329" />
        <path
           d="M 226.20191,909.35893 A 15.155906,15.155906 0 0 0 208.2261,921.03256"
           style="fill:none;stroke:#000000"
           id="path331" />
        <path
           style="fill:none;stroke:#000000"
           d="m 208.226,921.033 -1.146,5.393"
           id="path333" />
        <path
           style="fill:none;stroke:#000000"
           d="m 239.043,1186.22 49.735,13.32"
           id="path335" />
        <path
           style="fill:none;stroke:#000000"
           d="m 228.552,1166.81 -0.226,0.84"
           id="path337" />
        <path
           d="m 228.32643,1167.6536 a 15.155906,15.155906 0 0 0 10.71684,18.5621"
           style="fill:none;stroke:#000000"
           id="path339" />
        <path
           style="fill:none;stroke:#000000"
           d="m 388.61,985.651 0.969,-3.614"
           id="path341" />
        <path
           d="M 389.57855,982.03718 A 15.155906,15.155906 0 0 0 378.86171,963.47506"
           style="fill:none;stroke:#000000"
           id="path343" />
        <path
           style="fill:none;stroke:#000000"
           d="M 378.862,963.475 313.075,945.847"
           id="path345" />
        <path
           d="m 395.07347,1236.4582 a 15.155906,15.155906 0 0 0 1.7722,-4.0858"
           style="fill:none;stroke:#000000"
           id="path347" />
        <path
           style="fill:none;stroke:#000000"
           d="m 396.846,1232.37 18.585,-69.36"
           id="path349" />
        <path
           style="fill:none;stroke:#000000"
           d="m 415.432,1163.01 1.447,-5.4"
           id="path351" />
        <path
           style="fill:none;stroke:#000000"
           d="m 415.431,1163.01 v 0"
           id="path353" />
        <path
           style="fill:none;stroke:#000000"
           d="m 416.88,1157.6 18.586,-69.36"
           id="path355" />
        <path
           style="fill:none;stroke:#000000"
           d="m 435.466,1088.24 18.586,-69.36"
           id="path357" />
        <path
           d="m 454.05161,1018.877 a 15.155906,15.155906 0 0 0 -10.71685,-18.5622"
           style="fill:none;stroke:#000000"
           id="path359" />
        <path
           style="fill:none;stroke:#000000"
           d="M 443.335,1000.31 388.61,985.651"
           id="path361" />
        <path
           d="m 415.43085,1163.0116 a 15.155906,15.155906 0 0 0 3.5e-4,0"
           style="fill:none;stroke:#000000"
           id="path451" />
        <path
           style="fill:none;stroke:#000000"
           d="m 416.879,1157.61 10e-4,-0.01"
           id="path453" />
        <path
           d="m 291.01854,1227.3722 a 15.155906,15.155906 0 0 0 -4.23304,5.4015"
           style="fill:none;stroke:#000000"
           id="path455" />
        <path
           style="fill:none;stroke:#000000"
           d="m 286.785,1232.77 -47.886,102.7"
           id="path457" />
        <path
           d="m 238.89852,1335.4677 a 15.155906,15.155906 0 0 0 7.33075,20.1411"
           style="fill:none;stroke:#000000"
           id="path459" />
        <path
           style="fill:none;stroke:#000000"
           d="m 246.229,1355.61 66.114,30.83"
           id="path461" />
        <path
           style="fill:none;stroke:#000000"
           d="m 390.162,1431.95 72.835,-86.8"
           id="path463" />
        <path
           d="m 462.99678,1345.1509 a 15.155906,15.155906 0 0 0 -1.86807,-21.3521"
           style="fill:none;stroke:#000000"
           id="path465" />
        <path
           style="fill:none;stroke:#000000"
           d="m 461.129,1323.8 -59.296,-49.76"
           id="path467" />
        <path
           d="m 401.83325,1274.044 a 15.155906,15.155906 0 0 0 -2.43565,-1.6684"
           style="fill:none;stroke:#000000"
           id="path469" />
        <path
           style="fill:none;stroke:#000000"
           d="m 312.343,1386.44 56.467,47.38"
           id="path471" />
        <path
           d="m 368.81024,1433.8197 a 15.155906,15.155906 0 0 0 21.35213,-1.8681"
           style="fill:none;stroke:#000000"
           id="path473" />
        <path
           style="fill:none;stroke:#000000"
           d="m 395.073,1236.46 4.325,35.92"
           id="path495" />
        <path
           style="fill:none;stroke:#000000"
           d="m 291.019,1227.37 -2.241,-27.83"
           id="path497" />
        <path
           d="m 38.253652,1163.0499 a 7.559055,7.559055 0 0 0 -15.11811,0 7.559055,7.559055 0 0 0 15.11811,0 z"
           style="fill:none;stroke:#000000"
           id="path503" />
        <path
           d="m -20.610155,1011.9272 a 7.559055,7.559055 0 0 0 -15.11811,0 7.559055,7.559055 0 0 0 15.11811,0 z"
           style="fill:none;stroke:#000000"
           id="path505" />
        <path
           d="m 127.8307,1024.9141 a 7.559055,7.559055 0 0 0 -15.11811,0 7.559055,7.559055 0 0 0 15.11811,0 z"
           style="fill:none;stroke:#000000"
           id="path507" />
        <path
           d="m 287.85504,1030.98 a 7.559055,7.559055 0 0 0 -15.11811,0 7.559055,7.559055 0 0 0 15.11811,0 z"
           style="fill:none;stroke:#000000"
           id="path509" />
        <path
           d="m 231.38132,925.37157 a 7.559055,7.559055 0 0 0 -15.11811,0 7.559055,7.559055 0 0 0 15.11811,0 z"
           style="fill:none;stroke:#000000"
           id="path511" />
        <path
           d="m 185.72448,1160.1365 a 7.559055,7.559055 0 0 0 -15.11811,0 7.559055,7.559055 0 0 0 15.11811,0 z"
           style="fill:none;stroke:#000000"
           id="path513" />
        <path
           d="m 445.74451,1015.6625 a 7.559055,7.559055 0 0 0 -15.11811,0 7.559055,7.559055 0 0 0 15.11811,0 z"
           style="fill:none;stroke:#000000"
           id="path515" />
        <path
           d="m 389.52168,1225.489 a 7.55906,7.55906 0 0 0 -15.11812,0 7.55906,7.55906 0 0 0 15.11812,0 z"
           style="fill:none;stroke:#000000"
           id="path517" />
        <path
           d="m 453.85147,1337.1289 a 7.5590555,7.5590555 0 0 0 -15.11811,0 7.5590555,7.5590555 0 0 0 15.11811,0 z"
           style="fill:none;stroke:#000000"
           id="path519" />
        <path
           d="m 386.92057,1416.894 a 7.559055,7.559055 0 0 0 -15.11811,0 7.559055,7.559055 0 0 0 15.11811,0 z"
           style="fill:none;stroke:#000000"
           id="path521" />
        <path
           d="m 264.66901,1338.893 a 7.559055,7.559055 0 0 0 -15.11811,0 7.559055,7.559055 0 0 0 15.11811,0 z"
           style="fill:none;stroke:#000000"
           id="path523" />
      </g>
      <g
         id="g797"
         transform="rotate(-40,545.60351,1165.0688)">
        <path
           style="fill:none;stroke:#000000"
           d="m 940.171,1106.2 56.439,-4.94"
           id="path363" />
        <path
           d="m 996.61027,1101.2621 a 15.155906,15.155906 0 0 0 13.77733,-16.4191"
           style="fill:none;stroke:#000000"
           id="path365" />
        <path
           style="fill:none;stroke:#000000"
           d="m 1010.39,1084.84 -6.75,-77.11"
           id="path367" />
        <path
           d="M 1003.6413,1007.7328 A 15.155906,15.155906 0 0 0 987.22216,993.95547"
           style="fill:none;stroke:#000000"
           id="path369" />
        <path
           style="fill:none;stroke:#000000"
           d="M 847.283,1006.2 987.222,993.955"
           id="path371" />
        <path
           style="fill:none;stroke:#000000"
           d="m 854.221,1185.8 77.11,-6.74"
           id="path373" />
        <path
           d="m 931.33126,1179.0586 a 15.155906,15.155906 0 0 0 13.7773,-16.4191"
           style="fill:none;stroke:#000000"
           id="path375" />
        <path
           style="fill:none;stroke:#000000"
           d="m 945.109,1162.64 -4.938,-56.44"
           id="path377" />
        <path
           style="fill:none;stroke:#000000"
           d="m 837.335,1166.69 0.467,5.34"
           id="path379" />
        <path
           d="m 837.80192,1172.0276 a 15.155906,15.155906 0 0 0 16.41916,13.7773"
           style="fill:none;stroke:#000000"
           id="path381" />
        <path
           style="fill:none;stroke:#000000"
           d="m 783.274,1176.22 54.061,-9.53"
           id="path383" />
        <path
           style="fill:none;stroke:#000000"
           d="m 764.955,1159.61 0.761,4.32"
           id="path385" />
        <path
           d="m 765.71636,1163.9286 a 15.155906,15.155906 0 0 0 17.55744,12.2938"
           style="fill:none;stroke:#000000"
           id="path387" />
        <path
           style="fill:none;stroke:#000000"
           d="m 845.885,998.275 1.398,7.925"
           id="path389" />
        <path
           d="m 845.88539,998.27496 a 15.155906,15.155906 0 0 0 -5.9e-4,-0.003"
           style="fill:none;stroke:#000000"
           id="path391" />
        <path
           style="fill:none;stroke:#000000"
           d="M 845.885,998.272 833.416,927.555"
           id="path393" />
        <path
           d="M 833.41554,927.55491 A 15.155906,15.155906 0 0 0 815.85809,915.26105"
           style="fill:none;stroke:#000000"
           id="path395" />
        <path
           style="fill:none;stroke:#000000"
           d="M 815.858,915.261 752.54,926.426"
           id="path397" />
        <path
           style="fill:none;stroke:#000000"
           d="m 731.068,1166.81 33.887,-7.2"
           id="path399" />
        <path
           style="fill:none;stroke:#000000"
           d="m 752.54,926.426 -1.146,-5.393"
           id="path401" />
        <path
           d="M 751.39377,921.03256 A 15.155906,15.155906 0 0 0 733.41796,909.35893"
           style="fill:none;stroke:#000000"
           id="path403" />
        <path
           style="fill:none;stroke:#000000"
           d="m 733.418,909.359 -75.713,16.093"
           id="path405" />
        <path
           d="m 657.70472,925.45228 a 15.155906,15.155906 0 0 0 -11.67362,17.9758"
           style="fill:none;stroke:#000000"
           id="path407" />
        <path
           style="fill:none;stroke:#000000"
           d="m 646.031,943.428 0.514,2.419"
           id="path409" />
        <path
           style="fill:none;stroke:#000000"
           d="m 670.842,1199.54 49.735,-13.32"
           id="path411" />
        <path
           d="m 720.5766,1186.2157 a 15.155906,15.155906 0 0 0 10.71684,-18.5621"
           style="fill:none;stroke:#000000"
           id="path413" />
        <path
           style="fill:none;stroke:#000000"
           d="m 731.293,1167.65 -0.225,-0.84"
           id="path415" />
        <path
           style="fill:none;stroke:#000000"
           d="m 646.545,945.847 -65.787,17.628"
           id="path417" />
        <path
           d="m 580.75816,963.47506 a 15.155906,15.155906 0 0 0 -10.71684,18.56212"
           style="fill:none;stroke:#000000"
           id="path419" />
        <path
           style="fill:none;stroke:#000000"
           d="m 570.041,982.037 0.969,3.614"
           id="path421" />
        <path
           style="fill:none;stroke:#000000"
           d="m 542.74,1157.61 1.448,5.4"
           id="path423" />
        <path
           style="fill:none;stroke:#000000"
           d="m 544.188,1163.01 h 10e-4"
           id="path425" />
        <path
           style="fill:none;stroke:#000000"
           d="m 544.189,1163.01 v 0"
           id="path427" />
        <path
           style="fill:none;stroke:#000000"
           d="m 544.189,1163.01 18.585,69.36"
           id="path429" />
        <path
           d="m 562.7742,1232.3724 a 15.155906,15.155906 0 0 0 1.7722,4.0858"
           style="fill:none;stroke:#000000"
           id="path431" />
        <path
           style="fill:none;stroke:#000000"
           d="m 524.154,1088.24 18.586,69.37"
           id="path433" />
        <path
           d="m 544.18814,1163.0083 a 15.155906,15.155906 0 0 0 8.8e-4,0"
           style="fill:none;stroke:#000000"
           id="path435" />
        <path
           style="fill:none;stroke:#000000"
           d="m 571.01,985.651 -54.725,14.659"
           id="path437" />
        <path
           d="m 516.28511,1000.3148 a 15.155906,15.155906 0 0 0 -10.71685,18.5622"
           style="fill:none;stroke:#000000"
           id="path439" />
        <path
           style="fill:none;stroke:#000000"
           d="m 505.568,1018.88 18.585,69.36"
           id="path441" />
        <path
           style="fill:none;stroke:#000000"
           d="m 524.153,1088.24 h 10e-4"
           id="path443" />
        <path
           style="fill:none;stroke:#000000"
           d="m 524.154,1088.24 v 0"
           id="path445" />
        <path
           d="m 524.15345,1088.2378 a 15.155906,15.155906 0 0 0 8.7e-4,0"
           style="fill:none;stroke:#000000"
           id="path447" />
        <path
           style="fill:none;stroke:#000000"
           d="m 524.154,1088.24 v 0"
           id="path449" />
        <path
           style="fill:none;stroke:#000000"
           d="m 647.277,1386.44 66.114,-30.83"
           id="path475" />
        <path
           d="m 713.3906,1355.6088 a 15.155906,15.155906 0 0 0 7.33075,-20.1411"
           style="fill:none;stroke:#000000"
           id="path477" />
        <path
           style="fill:none;stroke:#000000"
           d="m 720.721,1335.47 -47.887,-102.7"
           id="path479" />
        <path
           d="m 672.83438,1232.7737 a 15.155906,15.155906 0 0 0 -4.23305,-5.4015"
           style="fill:none;stroke:#000000"
           id="path481" />
        <path
           style="fill:none;stroke:#000000"
           d="m 496.623,1345.15 72.835,86.8"
           id="path483" />
        <path
           d="m 569.45751,1431.9516 a 15.155906,15.155906 0 0 0 21.35212,1.8681"
           style="fill:none;stroke:#000000"
           id="path485" />
        <path
           style="fill:none;stroke:#000000"
           d="m 590.81,1433.82 56.467,-47.38"
           id="path487" />
        <path
           d="m 560.22227,1272.3756 a 15.155906,15.155906 0 0 0 -2.43565,1.6684"
           style="fill:none;stroke:#000000"
           id="path489" />
        <path
           style="fill:none;stroke:#000000"
           d="m 557.787,1274.04 -59.296,49.76"
           id="path491" />
        <path
           d="m 498.49116,1323.7988 a 15.155906,15.155906 0 0 0 -1.86807,21.3521"
           style="fill:none;stroke:#000000"
           id="path493" />
        <path
           style="fill:none;stroke:#000000"
           d="m 670.842,1199.54 -2.241,27.83"
           id="path499" />
        <path
           style="fill:none;stroke:#000000"
           d="m 560.222,1272.38 4.324,-35.92"
           id="path501" />
        <path
           d="m 936.48433,1163.0499 a 7.559055,7.559055 0 0 0 -15.11811,0 7.559055,7.559055 0 0 0 15.11811,0 z"
           style="fill:none;stroke:#000000"
           id="path525" />
        <path
           d="m 995.34814,1011.9272 a 7.559055,7.559055 0 0 0 -15.11811,0 7.559055,7.559055 0 0 0 15.11811,0 z"
           style="fill:none;stroke:#000000"
           id="path527" />
        <path
           d="m 846.90728,1024.9141 a 7.559055,7.559055 0 0 0 -15.11811,0 7.559055,7.559055 0 0 0 15.11811,0 z"
           style="fill:none;stroke:#000000"
           id="path529" />
        <path
           d="m 686.88294,1030.98 a 7.559055,7.559055 0 0 0 -15.11811,0 7.559055,7.559055 0 0 0 15.11811,0 z"
           style="fill:none;stroke:#000000"
           id="path531" />
        <path
           d="m 743.35666,925.37157 a 7.559055,7.559055 0 0 0 -15.11811,0 7.559055,7.559055 0 0 0 15.11811,0 z"
           style="fill:none;stroke:#000000"
           id="path533" />
        <path
           d="m 789.0135,1160.1365 a 7.559055,7.559055 0 0 0 -15.11811,0 7.559055,7.559055 0 0 0 15.11811,0 z"
           style="fill:none;stroke:#000000"
           id="path535" />
        <path
           d="m 528.99347,1015.6625 a 7.559055,7.559055 0 0 0 -15.11811,0 7.559055,7.559055 0 0 0 15.11811,0 z"
           style="fill:none;stroke:#000000"
           id="path537" />
        <path
           d="m 585.21631,1225.489 a 7.5590555,7.5590555 0 0 0 -15.11811,0 7.5590555,7.5590555 0 0 0 15.11811,0 z"
           style="fill:none;stroke:#000000"
           id="path539" />
        <path
           d="m 520.88652,1337.1289 a 7.55906,7.55906 0 0 0 -15.11812,0 7.55906,7.55906 0 0 0 15.11812,0 z"
           style="fill:none;stroke:#000000"
           id="path541" />
        <path
           d="m 587.81741,1416.894 a 7.559055,7.559055 0 0 0 -15.11811,0 7.559055,7.559055 0 0 0 15.11811,0 z"
           style="fill:none;stroke:#000000"
           id="path543" />
        <path
           d="m 710.06897,1338.893 a 7.559055,7.559055 0 0 0 -15.11811,0 7.559055,7.559055 0 0 0 15.11811,0 z"
           style="fill:none;stroke:#000000"
           id="path545" />
      </g>
    </g>
  </g>
</svg>
